<svg width="30" height="30" xmlns="http://www.w3.org/2000/svg" xmlns:xlink="http://www.w3.org/1999/xlink" xmlns:svgjs="http://svgjs.com/svgjs" viewBox="47 254 30 30"><svg width="27" height="21" xmlns="http://www.w3.org/2000/svg" xmlns:xlink="http://www.w3.org/1999/xlink" xmlns:svgjs="http://svgjs.com/svgjs" viewBox="0.083 0 26.834 21" fill="#96a4dc" x="50" y="254"><svg xmlns="http://www.w3.org/2000/svg" xmlns:xlink="http://www.w3.org/1999/xlink" width="27" height="21" viewBox="0.208 0 26.792 20.967"><path paint-order="stroke fill markers" fill-rule="evenodd" d="M18.675 3.665a.583.583 0 0 0-.412-.17h-5.941A6.408 6.408 0 0 0 6.615 0 6.414 6.414 0 0 0 .208 6.406a6.414 6.414 0 0 0 6.407 6.407 6.346 6.346 0 0 0 4.61-1.957c1.187 1.659 2.686 3.122 5.496 3.122h2.466l6.819 6.819a.583.583 0 0 0 .994-.412v-8.154a.582.582 0 0 0-.17-.412l-8.155-8.154zm-12.06 7.983a5.248 5.248 0 0 1-5.242-5.242 5.248 5.248 0 0 1 5.242-5.241 5.244 5.244 0 0 1 5.21 4.66h-1.716a.582.582 0 0 0-.582.581c0 1.128.655 2.136 1.632 2.616a5.216 5.216 0 0 1-4.544 2.626zm19.22 7.33l-5.038-5.037a.583.583 0 0 0-.204-1.128h-3.872c-2.432 0-3.628-1.287-4.74-2.906.125-.191.239-.389.342-.591.039.001.077.003.116.003h.975a4.086 4.086 0 0 0 3.685 2.33.582.582 0 0 0 0-1.165 2.918 2.918 0 0 1-2.747-1.942.582.582 0 0 0-.55-.388H12.44c-.75 0-1.401-.475-1.647-1.165H17.1a.582.582 0 0 0 0-1.165h-4.104a6.352 6.352 0 0 0-.215-1.165h5.242l7.813 7.813v6.507z"/></svg></svg><svg width="5" height="9" xmlns="http://www.w3.org/2000/svg" xmlns:xlink="http://www.w3.org/1999/xlink" xmlns:svgjs="http://svgjs.com/svgjs" viewBox="0.551 0 3.898 9" fill="#96a4dc" x="54" y="256"><svg xmlns="http://www.w3.org/2000/svg" xmlns:xlink="http://www.w3.org/1999/xlink" width="5" height="9" viewBox="0.84 0.329 3.532 8.154"><path paint-order="stroke fill markers" fill-rule="evenodd" d="M2.625 3.8a.583.583 0 0 1-.006-1.165h.004c.207 0 .426.105.632.304a.582.582 0 1 0 .81-.837 2.249 2.249 0 0 0-.868-.54v-.65a.582.582 0 1 0-1.165 0v.662A1.754 1.754 0 0 0 .877 3.217a1.75 1.75 0 0 0 1.748 1.747.583.583 0 0 1 0 1.165H2.62c-.252-.002-.512-.154-.751-.44a.582.582 0 1 0-.893.749c.308.367.671.624 1.056.756V7.9a.583.583 0 0 0 1.165 0V7.2a1.747 1.747 0 0 0-.572-3.4z"/></svg></svg><svg width="5" height="6" xmlns="http://www.w3.org/2000/svg" xmlns:xlink="http://www.w3.org/1999/xlink" xmlns:svgjs="http://svgjs.com/svgjs" viewBox="0.407 0 4.186 6" fill="#96a4dc" x="54" y="268"><svg xmlns="http://www.w3.org/2000/svg" xmlns:xlink="http://www.w3.org/1999/xlink" width="5" height="6" viewBox="0.518 0.328 3.495 5.009"><path paint-order="stroke fill markers" fill-rule="evenodd" d="M2.265.328a.583.583 0 0 0-.582.582v2.438l-.17-.17A.583.583 0 0 0 .687 4l1.165 1.165a.581.581 0 0 0 .824 0L3.842 4a.583.583 0 0 0-.824-.824l-.17.17V.91a.582.582 0 0 0-.583-.582z"/></svg></svg><svg width="2" height="2" xmlns="http://www.w3.org/2000/svg" xmlns:xlink="http://www.w3.org/1999/xlink" xmlns:svgjs="http://svgjs.com/svgjs" fill="#96a4dc" x="55" y="282"><svg xmlns="http://www.w3.org/2000/svg" xmlns:xlink="http://www.w3.org/1999/xlink" width="2" height="2" viewBox="0.22 0.65 1.145 1.145"><path paint-order="stroke fill markers" fill-rule="evenodd" d="M.792 1.795A.572.572 0 1 1 .791.65a.572.572 0 0 1 .001 1.144z"/></svg></svg><svg width="23" height="10" xmlns="http://www.w3.org/2000/svg" xmlns:xlink="http://www.w3.org/1999/xlink" xmlns:svgjs="http://svgjs.com/svgjs" viewBox="0 0.234 23 9.531" fill="#96a4dc" x="47" y="274"><svg xmlns="http://www.w3.org/2000/svg" width="23" height="10" viewBox="0.179 0.501 22.487 9.319"><path paint-order="stroke fill markers" fill-rule="evenodd" d="M4.416 2.831H.762a.583.583 0 0 0-.583.583v5.824c0 .322.261.582.583.582h5.3a.583.583 0 0 0 0-1.164H1.344v-4.66h2.722a4.132 4.132 0 0 0-.043.582.583.583 0 0 0 1.165 0A2.907 2.907 0 0 1 8.1 1.666h3.978A1.75 1.75 0 0 1 10.43 2.83H8.1a.583.583 0 0 0-.582.583 2.914 2.914 0 0 0 2.912 2.911h5.55l.011.001a.581.581 0 0 0 .412-.17l2.813-2.813.007-.008a1.754 1.754 0 0 1 2.027-.289l-4.572 5.61h-5.374a.582.582 0 1 0 0 1.164h5.651a.583.583 0 0 0 .452-.214l5.129-6.293a.583.583 0 0 0-.04-.78 2.923 2.923 0 0 0-3.689-.353 2.916 2.916 0 0 0-3.71.339l-2.641 2.642H10.43a1.75 1.75 0 0 1-1.647-1.165h1.647a2.915 2.915 0 0 0 2.912-2.912A.582.582 0 0 0 12.76.5H8.1c-1.583 0-3.015.921-3.684 2.33zm11.505.512A1.75 1.75 0 0 1 17.91 3l-2.16 2.16h-1.646l1.818-1.818z"/></svg></svg></svg>