<svg width="140" height="43" xmlns="http://www.w3.org/2000/svg" xmlns:xlink="http://www.w3.org/1999/xlink" xmlns:svgjs="http://svgjs.com/svgjs" viewBox="1064 4647 140 43"><svg width="140" height="43" xmlns="http://www.w3.org/2000/svg" xmlns:xlink="http://www.w3.org/1999/xlink" xmlns:svgjs="http://svgjs.com/svgjs" viewBox="1064 4647 140 43" x="1064" y="4647"><svg width="15" height="17" xmlns="http://www.w3.org/2000/svg" xmlns:xlink="http://www.w3.org/1999/xlink" xmlns:svgjs="http://svgjs.com/svgjs" viewBox="0 0.345 15 16.309" fill="#fff" x="1112" y="4660"><svg xmlns="http://www.w3.org/2000/svg" xmlns:xlink="http://www.w3.org/1999/xlink" width="15" height="17" viewBox="0.08 0.275 14.478 15.742"><path paint-order="stroke fill markers" fill-rule="evenodd" d="M.09 8.12A7.542 7.542 0 0 1 7.384.275h.31c3.846 0 6.117 2.263 6.788 4.911l-2.391.8a4.209 4.209 0 0 0-4.397-3.304c-2.49 0-4.986 1.818-4.986 5.483 0 3.666 2.436 5.416 5.016 5.416a4.526 4.526 0 0 0 4.488-3.326l2.346.754a6.79 6.79 0 0 1-6.864 5A7.475 7.475 0 0 1 .083 8.68c-.008-.182 0-.37.007-.559z"/></svg></svg><svg width="11" height="16" xmlns="http://www.w3.org/2000/svg" xmlns:xlink="http://www.w3.org/1999/xlink" xmlns:svgjs="http://svgjs.com/svgjs" viewBox="0.737 0 9.525 16" fill="#fff" x="1128" y="4660"><svg xmlns="http://www.w3.org/2000/svg" xmlns:xlink="http://www.w3.org/1999/xlink" width="11" height="16" viewBox="0.818 0.23 9.187 15.433"><path paint-order="stroke fill markers" fill-rule="evenodd" d="M3.292 15.663H.818V.23h2.474v6.035a3.658 3.658 0 0 1 2.942-1.298c2.557 0 3.772 1.833 3.772 4.118v6.578H7.622v-6.14a2.014 2.014 0 0 0-1.69-2.263 2.197 2.197 0 0 0-.445 0A2.157 2.157 0 0 0 3.33 9.417a1.59 1.59 0 0 0 0 .19l-.038 6.056z"/></svg></svg><svg width="10" height="13" xmlns="http://www.w3.org/2000/svg" xmlns:xlink="http://www.w3.org/1999/xlink" xmlns:svgjs="http://svgjs.com/svgjs" viewBox="0 0.405 10 12.189" fill="#fff" x="1140" y="4664"><svg xmlns="http://www.w3.org/2000/svg" xmlns:xlink="http://www.w3.org/1999/xlink" width="10" height="13" viewBox="0.513 0.975 9.075 11.062"><path paint-order="stroke fill markers" fill-rule="evenodd" d="M3.621 5.72l2.655-.416c.604-.075.755-.384.755-.754 0-.875-.589-1.576-1.962-1.576A1.976 1.976 0 0 0 2.942 4.76v.113L.68 4.37C.868 2.574 2.497.975 5.047.975c3.198 0 4.413 1.81 4.413 3.922v5.152c-.003.558.04 1.115.128 1.667H7.325a6.034 6.034 0 0 1-.098-1.328 3.606 3.606 0 0 1-3.198 1.637A3.258 3.258 0 0 1 .514 9.053v-.15C.476 6.992 1.84 5.967 3.62 5.718zm3.425 1.666v-.475l-2.708.407a1.426 1.426 0 0 0-1.38 1.41 1.373 1.373 0 0 0 1.418 1.351h.113a2.353 2.353 0 0 0 2.587-2.112c.01-.194-.002-.39-.038-.58h.008z"/></svg></svg><svg width="4" height="16" xmlns="http://www.w3.org/2000/svg" xmlns:xlink="http://www.w3.org/1999/xlink" xmlns:svgjs="http://svgjs.com/svgjs" viewBox="0.355 0 3.289 16" fill="#fff" x="1152" y="4660"><svg xmlns="http://www.w3.org/2000/svg" xmlns:xlink="http://www.w3.org/1999/xlink" width="4" height="16" viewBox="0.12 0.004 3.228 15.704"><path paint-order="stroke fill markers" fill-rule="evenodd" d="M1.712.02a1.613 1.613 0 0 1 1.636 1.598A1.614 1.614 0 1 1 1.713.004v.015zM.505 15.707V5.284h2.474v10.379l-2.474.045z"/></svg></svg><svg width="10" height="12" xmlns="http://www.w3.org/2000/svg" xmlns:xlink="http://www.w3.org/1999/xlink" xmlns:svgjs="http://svgjs.com/svgjs" viewBox="0 0.224 10 11.552" fill="#fff" x="1158" y="4664"><svg xmlns="http://www.w3.org/2000/svg" xmlns:xlink="http://www.w3.org/1999/xlink" width="10" height="12" viewBox="0.202 0.98 9.248 10.683"><path paint-order="stroke fill markers" fill-rule="evenodd" d="M2.668 11.663H.202V1.283h2.406v1.381A3.432 3.432 0 0 1 5.678.982c2.534 0 3.771 1.833 3.771 4.119v6.562H6.983v-6.14c0-1.275-.581-2.308-2.135-2.308a2.188 2.188 0 0 0-2.172 2.202v.25l-.008 5.996z"/></svg></svg><svg width="3" height="16" xmlns="http://www.w3.org/2000/svg" xmlns:xlink="http://www.w3.org/1999/xlink" xmlns:svgjs="http://svgjs.com/svgjs" viewBox="0.217 0 2.565 16" fill="#fff" x="1170" y="4660"><svg xmlns="http://www.w3.org/2000/svg" xmlns:xlink="http://www.w3.org/1999/xlink" width="3" height="16" viewBox="0.475 0.23 2.474 15.433"><path paint-order="stroke fill markers" fill-rule="evenodd" d="M.475 15.663V.23h2.474v15.433H.475z"/></svg></svg><svg width="5" height="16" xmlns="http://www.w3.org/2000/svg" xmlns:xlink="http://www.w3.org/1999/xlink" xmlns:svgjs="http://svgjs.com/svgjs" viewBox="0.861 0 3.277 16" fill="#fff" x="1175" y="4660"><svg xmlns="http://www.w3.org/2000/svg" xmlns:xlink="http://www.w3.org/1999/xlink" width="5" height="16" viewBox="0.794 0.019 3.213 15.689"><path paint-order="stroke fill markers" fill-rule="evenodd" d="M2.393.02a1.607 1.607 0 1 1-1.6 1.598c.009-.88.72-1.591 1.6-1.599zM1.178 15.707V5.284H3.63v10.379l-2.452.045z"/></svg></svg><svg width="11" height="12" xmlns="http://www.w3.org/2000/svg" xmlns:xlink="http://www.w3.org/1999/xlink" xmlns:svgjs="http://svgjs.com/svgjs" viewBox="0.306 0 10.388 12" fill="#fff" x="1181" y="4664"><svg xmlns="http://www.w3.org/2000/svg" xmlns:xlink="http://www.w3.org/1999/xlink" width="11" height="12" viewBox="0.959 0.98 9.248 10.683"><path paint-order="stroke fill markers" fill-rule="evenodd" d="M3.434 11.663H.959V1.283h2.407v1.381A3.44 3.44 0 0 1 6.436.982c2.534 0 3.771 1.833 3.771 4.119v6.562H7.733v-6.14a2.014 2.014 0 0 0-1.69-2.263 2.27 2.27 0 0 0-.452 0 2.188 2.188 0 0 0-2.165 2.188 1.522 1.522 0 0 0 0 .264l.008 5.95z"/></svg></svg><svg width="10" height="16" xmlns="http://www.w3.org/2000/svg" xmlns:xlink="http://www.w3.org/1999/xlink" xmlns:svgjs="http://svgjs.com/svgjs" viewBox="0 0.075 10 15.85" fill="#fff" x="1194" y="4660"><svg xmlns="http://www.w3.org/2000/svg" xmlns:xlink="http://www.w3.org/1999/xlink" width="10" height="16" viewBox="0.239 0.23 9.761 15.471"><path paint-order="stroke fill markers" fill-rule="evenodd" d="M5.648 9.666L10 15.701H6.983l-3.017-4.277-1.275 1.342v2.897H.239V.23h2.452v9.248l3.982-4.194h3.282L5.648 9.666z"/></svg></svg><svg width="38" height="43" xmlns="http://www.w3.org/2000/svg" xmlns:xlink="http://www.w3.org/1999/xlink" xmlns:svgjs="http://svgjs.com/svgjs" viewBox="0.388 0 37.224 43" fill="#fff" x="1064" y="4647"><svg xmlns="http://www.w3.org/2000/svg" width="38" height="43" viewBox="0 0 37.044 42.791"><path paint-order="stroke fill markers" fill-rule="evenodd" d="M18.525 0l-3.922 2.263-10.68 6.2L0 10.726v21.4l3.922 2.262 10.696 6.14 3.922 2.263 3.923-2.263 10.658-6.185 3.922-2.263V10.65l-3.922-2.262-10.688-6.125L18.51 0h.015zm0 9.051l10.696 6.14v12.34L18.556 33.71 7.867 27.584V15.252l10.658-6.2z"/></svg></svg></svg></svg>