<svg width="30" height="31" xmlns="http://www.w3.org/2000/svg" xmlns:xlink="http://www.w3.org/1999/xlink" xmlns:svgjs="http://svgjs.com/svgjs" viewBox="47 204 30 31"><svg width="30" height="31" xmlns="http://www.w3.org/2000/svg" xmlns:xlink="http://www.w3.org/1999/xlink" xmlns:svgjs="http://svgjs.com/svgjs" viewBox="0 0.5 30 30" fill="#96a4dc" stroke-miterlimit="100" stroke="#96a4dc" stroke-width=".3" x="47" y="204"><svg xmlns="http://www.w3.org/2000/svg" xmlns:xlink="http://www.w3.org/1999/xlink" width="30" height="31" viewBox="0.179 1 29.82 29.82"><path paint-order="stroke fill markers" fill-rule="evenodd" d="M29.479 11.062l-1.208-.708a1.058 1.058 0 0 0-.533-.145h-2.912V7.762c0-.273-.09-.545-.254-.765L22.778 4.59a1.286 1.286 0 0 0-1.027-.516h-.529V2.437c0-.793-.644-1.437-1.436-1.437h-8.504a.437.437 0 1 0 0 .873h8.504c.31 0 .563.253.563.564v1.637H6.344V2.437c0-.31.252-.564.563-.564h2.628a.437.437 0 1 0 0-.873H6.907c-.792 0-1.437.644-1.437 1.437v1.637h-.529c-.402 0-.786.193-1.027.516L2.12 6.997c-.164.22-.254.492-.254.765v5.77a.437.437 0 0 0 .874 0v-5.77a.41.41 0 0 1 .08-.243l1.795-2.407a.409.409 0 0 1 .326-.164h16.81a.41.41 0 0 1 .327.164l1.794 2.407a.41.41 0 0 1 .08.243V22.97h-2.021v-.511c0-.602-.49-1.09-1.091-1.09h-7.071c.034-.578.269-1.68 1.477-2.364a2.61 2.61 0 0 0 3.23 1.486s0 0 0 0a.853.853 0 0 0 .54-1.076 2.607 2.607 0 0 0-2.153-1.765 3.752 3.752 0 0 0 .627-1.558 3.1 3.1 0 0 0 3.733-2.016.94.94 0 0 0-.052-.721.94.94 0 0 0-.548-.474 3.1 3.1 0 0 0-3.564 1.243 2.609 2.609 0 0 0-2.852-.843.853.853 0 0 0-.54 1.077c.22.66.682 1.195 1.304 1.507a2.588 2.588 0 0 0 1.63.236c-.325 1.499-1.553 1.986-1.995 2.269-.298-.872-1.102-2.33-3.239-3.168a4.419 4.419 0 0 1-1.14-.647c.624-.377 1.625-1.108 2.276-2.22a.98.98 0 0 0 .226 0 3.17 3.17 0 0 0 2.124-1.205 3.17 3.17 0 0 0 .649-2.354.958.958 0 0 0-.364-.641.957.957 0 0 0-.711-.197 3.17 3.17 0 0 0-2.124 1.206 3.168 3.168 0 0 0-.65 2.353.966.966 0 0 0 .119.358c-.621 1.085-1.678 1.775-2.182 2.058a3.905 3.905 0 0 1-.801-2.108.95.95 0 0 0 .19-.442 3.15 3.15 0 0 0-2.632-3.588.949.949 0 0 0-.71.174.95.95 0 0 0-.38.626A3.15 3.15 0 0 0 7.95 12.17c.044.312.137.744.333 1.214a4.669 4.669 0 0 0 .894 1.385l.006.007A2.604 2.604 0 0 0 7.237 16.4a.846.846 0 0 0 .016.651c.093.208.26.368.473.45a2.598 2.598 0 0 0 1.992-.05 2.586 2.586 0 0 0 1.363-1.421c2.14.854 2.67 2.399 2.792 2.945-.783.835-.954 1.816-.98 2.394h-7.04c-.602 0-1.091.49-1.091 1.091v.51H2.74v-7.69a.437.437 0 1 0-.874 0v7.69h-.603c-.597 0-1.084.487-1.084 1.085v5.682c0 .598.487 1.084 1.084 1.084H25.43c.598 0 1.084-.486 1.084-1.084v-1.738a.437.437 0 1 0-.874 0v1.738a.21.21 0 0 1-.21.21H1.263a.21.21 0 0 1-.21-.21v-5.682a.21.21 0 0 1 .21-.21H25.43a.21.21 0 0 1 .21.21v2.198a.437.437 0 1 0 .874 0v-2.198c0-.598-.486-1.084-1.084-1.084h-.603v-3.406h2.912c.187 0 .372-.05.533-.145l1.208-.708c.321-.189.52-.538.52-.91v-5.829c0-.373-.199-.721-.52-.91 0 0 0 0 0 0zm-11.278 8.6s0 0 0 0 0 0 0 0zm-.021.007a1.732 1.732 0 0 1-2.16-1.084 1.72 1.72 0 0 1 1.3.103c.407.204.712.552.86.98 0 0 0 0 0 0zm.473-5.836a2.208 2.208 0 0 1 1.695-.123.072.072 0 0 1 .046.092 2.207 2.207 0 0 1-1.112 1.285c-.53.266-1.132.31-1.695.123a.072.072 0 0 1-.042-.036l-.004-.009-.002-.035c0-.004 0-.008.002-.01a2.207 2.207 0 0 1 1.112-1.287zm-4.15.27a1.732 1.732 0 0 1 2.16 1.084 1.733 1.733 0 0 1-2.16-1.083s0 0 0 0zm-1.51-4.422a2.3 2.3 0 0 1 1.541-.876h.012c.025 0 .043.01.055.019.013.01.03.03.034.06a2.319 2.319 0 0 1-2.013 2.584.09.09 0 0 1-.101-.078s0 0 0 0a2.301 2.301 0 0 1 .471-1.71s0 0 0 0zM6.12 8.707a.083.083 0 0 1 .094-.068 2.276 2.276 0 0 1 1.902 2.592.083.083 0 0 1-.094.068A2.276 2.276 0 0 1 6.12 8.707s0 0 0 0zm1.94 7.985a1.733 1.733 0 0 1 2.208-.981 1.732 1.732 0 0 1-2.208.98zm-2.424 5.767c0-.12.097-.217.217-.217H20.84c.12 0 .217.097.217.217v.51H5.636v-.51zm23.49-4.659a.182.182 0 0 1-.09.157l-1.207.708a.182.182 0 0 1-.091.025h-2.912v-7.608h2.912c.032 0 .064.01.091.025l1.208.709c.055.032.09.092.09.156V17.8z"/></svg></svg><svg width="2" height="2" xmlns="http://www.w3.org/2000/svg" xmlns:xlink="http://www.w3.org/1999/xlink" xmlns:svgjs="http://svgjs.com/svgjs" viewBox="0.331 0 1.337 2" fill="#96a4dc" stroke-miterlimit="100" stroke="#96a4dc" stroke-width=".3" x="74" y="216"><svg xmlns="http://www.w3.org/2000/svg" xmlns:xlink="http://www.w3.org/1999/xlink" width="2" height="2" viewBox="0.358 0.664 0.874 1.307"><path paint-order="stroke fill markers" fill-rule="evenodd" d="M.795.664a.437.437 0 0 0-.437.436v.434a.437.437 0 0 0 .874 0V1.1A.437.437 0 0 0 .795.664z"/></svg></svg><svg width="2" height="3" xmlns="http://www.w3.org/2000/svg" xmlns:xlink="http://www.w3.org/1999/xlink" xmlns:svgjs="http://svgjs.com/svgjs" viewBox="0 0.005 2 2.991" fill="#96a4dc" stroke-miterlimit="100" stroke="#96a4dc" stroke-width=".3" x="74" y="219"><svg xmlns="http://www.w3.org/2000/svg" xmlns:xlink="http://www.w3.org/1999/xlink" width="2" height="3" viewBox="0.358 0.803 0.874 1.307"><path paint-order="stroke fill markers" fill-rule="evenodd" d="M.795.803a.437.437 0 0 0-.437.436v.433a.437.437 0 0 0 .874 0V1.24A.437.437 0 0 0 .795.803z"/></svg></svg><svg width="2" height="7" xmlns="http://www.w3.org/2000/svg" xmlns:xlink="http://www.w3.org/1999/xlink" xmlns:svgjs="http://svgjs.com/svgjs" viewBox="0.502 0 0.997 7" fill="#96a4dc" stroke-miterlimit="100" stroke="#96a4dc" stroke-width=".3" x="72" y="215"><svg xmlns="http://www.w3.org/2000/svg" xmlns:xlink="http://www.w3.org/1999/xlink" width="2" height="7" viewBox="0.599 0.818 0.874 6.136"><path paint-order="stroke fill markers" fill-rule="evenodd" d="M1.036.818a.437.437 0 0 0-.437.437v5.263a.437.437 0 0 0 .873 0V1.255a.437.437 0 0 0-.436-.437z"/></svg></svg><svg width="2" height="2" xmlns="http://www.w3.org/2000/svg" xmlns:xlink="http://www.w3.org/1999/xlink" xmlns:svgjs="http://svgjs.com/svgjs" viewBox="0 0.496 2 1.009" fill="#96a4dc" stroke-miterlimit="100" stroke="#96a4dc" stroke-width=".3" x="55" y="206"><svg xmlns="http://www.w3.org/2000/svg" xmlns:xlink="http://www.w3.org/1999/xlink" width="2" height="2" viewBox="0.24 0.537 1.732 0.874"><path paint-order="stroke fill markers" fill-rule="evenodd" d="M1.535.537H.677a.437.437 0 1 0 0 .874h.858a.437.437 0 1 0 0-.874z"/></svg></svg><svg width="3" height="2" xmlns="http://www.w3.org/2000/svg" xmlns:xlink="http://www.w3.org/1999/xlink" xmlns:svgjs="http://svgjs.com/svgjs" viewBox="0 0.243 3 1.513" fill="#96a4dc" stroke-miterlimit="100" stroke="#96a4dc" stroke-width=".3" x="59" y="206"><svg xmlns="http://www.w3.org/2000/svg" xmlns:xlink="http://www.w3.org/1999/xlink" width="3" height="2" viewBox="0.48 0.537 1.732 0.874"><path paint-order="stroke fill markers" fill-rule="evenodd" d="M1.776 1.41a.437.437 0 1 0 0-.873H.917a.437.437 0 1 0 0 .874h.859z"/></svg></svg><svg width="3" height="2" xmlns="http://www.w3.org/2000/svg" xmlns:xlink="http://www.w3.org/1999/xlink" xmlns:svgjs="http://svgjs.com/svgjs" viewBox="0 0.243 3 1.513" fill="#96a4dc" stroke-miterlimit="100" stroke="#96a4dc" stroke-width=".3" x="63" y="206"><svg xmlns="http://www.w3.org/2000/svg" xmlns:xlink="http://www.w3.org/1999/xlink" width="3" height="2" viewBox="0.721 0.537 1.732 0.874"><path paint-order="stroke fill markers" fill-rule="evenodd" d="M2.016 1.41a.437.437 0 0 0 0-.873h-.858a.437.437 0 1 0 0 .874h.858z"/></svg></svg><svg width="5" height="4" xmlns="http://www.w3.org/2000/svg" xmlns:xlink="http://www.w3.org/1999/xlink" xmlns:svgjs="http://svgjs.com/svgjs" viewBox="0.5 0 4 4" fill="#96a4dc" stroke-miterlimit="100" stroke="#96a4dc" stroke-width=".3" x="64" y="229"><svg xmlns="http://www.w3.org/2000/svg" xmlns:xlink="http://www.w3.org/1999/xlink" width="5" height="4" viewBox="0.697 0.018 3.754 3.754"><path paint-order="stroke fill markers" fill-rule="evenodd" d="M.697 1.895a1.88 1.88 0 0 0 1.878 1.877 1.88 1.88 0 0 0 1.877-1.877A1.88 1.88 0 0 0 2.575.018 1.88 1.88 0 0 0 .697 1.895zm2.88 0a1.005 1.005 0 0 1-2.006 0c0-.553.45-1.004 1.003-1.004.554 0 1.004.45 1.004 1.004z"/></svg></svg><svg width="5" height="4" xmlns="http://www.w3.org/2000/svg" xmlns:xlink="http://www.w3.org/1999/xlink" xmlns:svgjs="http://svgjs.com/svgjs" viewBox="0.5 0 4 4" fill="#96a4dc" stroke-miterlimit="100" stroke="#96a4dc" stroke-width=".3" x="58" y="229"><svg xmlns="http://www.w3.org/2000/svg" xmlns:xlink="http://www.w3.org/1999/xlink" width="5" height="4" viewBox="0.469 0.018 3.754 3.754"><path paint-order="stroke fill markers" fill-rule="evenodd" d="M.47 1.895a1.88 1.88 0 0 0 1.876 1.877 1.88 1.88 0 0 0 1.877-1.877A1.88 1.88 0 0 0 2.346.018 1.88 1.88 0 0 0 .47 1.895zm2.88 0A1.005 1.005 0 1 1 2.347.891c.552 0 1.003.45 1.003 1.004z"/></svg></svg><svg width="4" height="4" xmlns="http://www.w3.org/2000/svg" xmlns:xlink="http://www.w3.org/1999/xlink" xmlns:svgjs="http://svgjs.com/svgjs" fill="#96a4dc" stroke-miterlimit="100" stroke="#96a4dc" stroke-width=".3" x="52" y="229"><svg xmlns="http://www.w3.org/2000/svg" xmlns:xlink="http://www.w3.org/1999/xlink" width="4" height="4" viewBox="0.241 0.018 3.754 3.754"><path paint-order="stroke fill markers" fill-rule="evenodd" d="M.24 1.895a1.88 1.88 0 0 0 1.878 1.877 1.88 1.88 0 0 0 1.877-1.877A1.88 1.88 0 0 0 2.118.018 1.88 1.88 0 0 0 .241 1.895zm2.881 0a1.005 1.005 0 0 1-2.007 0 1.005 1.005 0 0 1 2.007 0z"/></svg></svg><svg width="2" height="2" xmlns="http://www.w3.org/2000/svg" xmlns:xlink="http://www.w3.org/1999/xlink" xmlns:svgjs="http://svgjs.com/svgjs" viewBox="0.273 0 1.453 2" fill="#96a4dc" stroke-miterlimit="100" stroke="#96a4dc" stroke-width=".3" x="70" y="230"><svg xmlns="http://www.w3.org/2000/svg" xmlns:xlink="http://www.w3.org/1999/xlink" width="2" height="2" viewBox="0.203 0.294 0.874 1.203"><path paint-order="stroke fill markers" fill-rule="evenodd" d="M.203.73v.33a.437.437 0 1 0 .873 0V.73a.437.437 0 1 0-.873 0z"/></svg></svg><svg width="2" height="2" xmlns="http://www.w3.org/2000/svg" xmlns:xlink="http://www.w3.org/1999/xlink" xmlns:svgjs="http://svgjs.com/svgjs" viewBox="0.273 0 1.453 2" fill="#96a4dc" stroke-miterlimit="100" stroke="#96a4dc" stroke-width=".3" x="49" y="230"><svg xmlns="http://www.w3.org/2000/svg" width="2" height="2" viewBox="0.616 0.294 0.874 1.203"><path paint-order="stroke fill markers" fill-rule="evenodd" d="M.616.73v.33a.437.437 0 1 0 .874 0V.73a.437.437 0 0 0-.874 0z"/></svg></svg></svg>