<svg width="41" height="41" xmlns="http://www.w3.org/2000/svg" xmlns:xlink="http://www.w3.org/1999/xlink" xmlns:svgjs="http://svgjs.com/svgjs" viewBox="38 42 41 41"><svg width="6" height="10" xmlns="http://www.w3.org/2000/svg" xmlns:xlink="http://www.w3.org/1999/xlink" xmlns:svgjs="http://svgjs.com/svgjs" viewBox="0.143 0 5.714 10" fill="#96a4dc" x="55" y="67"><svg xmlns="http://www.w3.org/2000/svg" xmlns:xlink="http://www.w3.org/1999/xlink" width="6" height="10" viewBox="0.419 0.806 5.161 9.032"><path paint-order="stroke fill markers" fill-rule="evenodd" d="M3.645 3.387c.356 0 .645.289.645.645h1.29a1.938 1.938 0 0 0-1.935-1.936V.806h-1.29v1.29H.419v1.936c0 1.067.869 1.936 1.936 1.936h1.29c.356 0 .645.289.645.645v.645H2.355a.645.645 0 0 1-.645-.645H.42c0 1.067.868 1.935 1.935 1.935v1.29h1.29v-1.29h1.936V6.613a1.938 1.938 0 0 0-1.936-1.936h-1.29a.645.645 0 0 1-.645-.645v-.645h1.935z"/></svg></svg><svg width="34" height="15" xmlns="http://www.w3.org/2000/svg" xmlns:xlink="http://www.w3.org/1999/xlink" xmlns:svgjs="http://svgjs.com/svgjs" viewBox="0 0.02 34 14.96" fill="#96a4dc" x="41" y="65"><svg xmlns="http://www.w3.org/2000/svg" xmlns:xlink="http://www.w3.org/1999/xlink" width="34" height="15" viewBox="0.871 0.226 32.258 14.194"><path paint-order="stroke fill markers" fill-rule="evenodd" d="M33.129 14.42V.225H.87v14.193h32.258zM9.903 7.321c0 2.4 1.2 4.522 3.03 5.807h-6.3A5.166 5.166 0 0 0 2.16 8.657v-2.67a5.166 5.166 0 0 0 4.471-4.472h6.3a7.092 7.092 0 0 0-3.029 5.807zm17.464-5.806a5.166 5.166 0 0 0 4.472 4.471v2.67a5.166 5.166 0 0 0-4.472 4.473h-6.3a7.092 7.092 0 0 0 3.03-5.808c0-2.4-1.2-4.52-3.03-5.806h6.3zm4.472 3.168a3.876 3.876 0 0 1-3.168-3.168h3.168v3.168zm-3.168 8.445a3.876 3.876 0 0 1 3.168-3.168v3.168H28.67zm-11.671 0a5.813 5.813 0 0 1-5.807-5.807A5.813 5.813 0 0 1 17 1.516a5.813 5.813 0 0 1 5.806 5.806A5.813 5.813 0 0 1 17 13.13zM2.16 9.96A3.876 3.876 0 0 1 5.33 13.13H2.161V9.96zM5.33 1.516a3.876 3.876 0 0 1-3.168 3.168V1.516H5.33z"/></svg></svg><svg width="41" height="41" xmlns="http://www.w3.org/2000/svg" xmlns:xlink="http://www.w3.org/1999/xlink" xmlns:svgjs="http://svgjs.com/svgjs" fill="#96a4dc" x="38" y="42"><svg xmlns="http://www.w3.org/2000/svg" width="41" height="41" viewBox="0 0 40 40"><path paint-order="stroke fill markers" fill-rule="evenodd" d="M40 18.064h-1.29v-1.29c0-3.355-2.15-6.21-5.141-7.282a4.511 4.511 0 0 0 1.915-3.686 4.522 4.522 0 0 0-4.516-4.516 4.522 4.522 0 0 0-4.516 4.516 4.51 4.51 0 0 0 1.911 3.683 7.662 7.662 0 0 0-2.44 1.42 8.356 8.356 0 0 0-2.944-1.54 5.158 5.158 0 0 0 2.182-4.208A5.167 5.167 0 0 0 20 0a5.167 5.167 0 0 0-5.161 5.161c0 1.736.864 3.272 2.183 4.208a8.36 8.36 0 0 0-2.945 1.54 7.664 7.664 0 0 0-2.44-1.42 4.51 4.51 0 0 0 1.911-3.683A4.522 4.522 0 0 0 9.032 1.29a4.522 4.522 0 0 0-4.516 4.516c0 1.521.759 2.867 1.915 3.686-2.992 1.071-5.14 3.927-5.14 7.282v1.29H0v3.871h1.29V40h37.42V21.935H40v-3.87zm-2.58-1.29v1.29h-1.936v-3.87h-1.29v3.87h-5.162v-.645a8.348 8.348 0 0 0-2.176-5.617 6.386 6.386 0 0 1 2.606-1.297l-.456 4.573 1.962 1.963 1.962-1.962-.456-4.572c2.832.681 4.945 3.229 4.945 6.267zm-12.904-2.58v3.87h-2.994l2.198-7.031c2.375 1.148 4.022 3.575 4.022 6.386v.645h-1.936v-3.87h-1.29zm-10.323 0v3.87h-1.935v-.645c0-2.81 1.646-5.237 4.022-6.386l2.197 7.031h-2.993v-3.87h-1.29zm3.297-3.615c.314-.086.635-.152.965-.193l-.293 2.343-.672-2.15zm2.339 7.485l-.738-2.362.671-5.38h.475l.672 5.38-.738 2.362h-.342zm2.009-5.335l-.293-2.343c.33.042.651.108.965.194l-.672 2.15zm9.13-2.407c.064 0 .127.008.191.01l.427 4.267-.618.617-.618-.617.426-4.267c.064-.002.127-.01.192-.01zm-3.226-4.516a3.23 3.23 0 0 1 3.226-3.225 3.23 3.23 0 0 1 3.226 3.225 3.23 3.23 0 0 1-3.226 3.226 3.23 3.23 0 0 1-3.226-3.226zm-11.613-.645a3.875 3.875 0 0 1 3.87-3.87 3.875 3.875 0 0 1 3.872 3.87A3.875 3.875 0 0 1 20 9.031a3.875 3.875 0 0 1-3.871-3.87zm-7.097 5.161c.434 0 .861.043 1.278.126a1.288 1.288 0 0 1-1.278 1.165 1.288 1.288 0 0 1-1.277-1.162c.413-.084.84-.129 1.277-.129zM5.806 5.806a3.23 3.23 0 0 1 3.226-3.225 3.23 3.23 0 0 1 3.226 3.225 3.23 3.23 0 0 1-3.226 3.226 3.23 3.23 0 0 1-3.226-3.226zM2.581 16.774a6.46 6.46 0 0 1 3.923-5.934 2.585 2.585 0 0 0 2.528 2.063 2.584 2.584 0 0 0 2.529-2.066c.567.242 1.1.565 1.583.965a8.349 8.349 0 0 0-2.176 5.617v.645H5.806v-3.87h-1.29v3.87H2.581v-1.29zm34.838 21.935H2.581V21.935h34.838V38.71zm1.29-18.064H1.29v-1.29h37.42v1.29z"/></svg></svg></svg>