<svg width="30" height="17" xmlns="http://www.w3.org/2000/svg" xmlns:xlink="http://www.w3.org/1999/xlink" xmlns:svgjs="http://svgjs.com/svgjs" viewBox="0 0.297 30 16.406" fill="#96a4dc"><svg xmlns="http://www.w3.org/2000/svg" width="30" height="17" viewBox="0.179 0 29.821 16.308"><path paint-order="stroke fill markers" fill-rule="evenodd" d="M29.417 4.66h-8.736a.582.582 0 0 0-.582.582v.582h-6.507c-.214 0-.422.039-.616.112A6.415 6.415 0 0 0 6.586 0 6.414 6.414 0 0 0 .18 6.406a6.418 6.418 0 0 0 4.563 6.136 4.07 4.07 0 0 0-1.534 3.184c0 .321.26.582.582.582h10.684c.778 0 1.51-.303 2.06-.853l2.64-2.642h.925v.583c0 .321.26.582.582.582h8.736c.322 0 .583-.26.583-.582V5.242a.583.583 0 0 0-.583-.583zm-22.83 6.988a5.248 5.248 0 0 1-5.243-5.242 5.248 5.248 0 0 1 5.242-5.241 5.248 5.248 0 0 1 5.22 5.722L9.202 9.489a2.231 2.231 0 0 0-.575 2.16H7.285c-.172 0-.341.011-.508.032a.584.584 0 0 0-.19-.033zm12.347 0a.582.582 0 0 0-.412.171l-2.812 2.812c-.33.33-.77.512-1.236.512H4.431a2.918 2.918 0 0 1 2.854-2.33h2.11c.404.32.894.482 1.385.482.57 0 1.142-.218 1.576-.652l2.33-2.33a.583.583 0 0 0-.824-.824l-2.33 2.33a1.058 1.058 0 0 1-.752.312 1.066 1.066 0 0 1-.753-1.818L13.18 7.16c.11-.11.256-.171.412-.171h6.507v4.66h-1.165zm2.33-5.824h1.747v6.99h-1.748v-6.99zm7.571 6.99h-4.66v-6.99h4.66v6.99z"/></svg></svg>