<svg width="910" height="540" xmlns="http://www.w3.org/2000/svg" xmlns:xlink="http://www.w3.org/1999/xlink" xmlns:svgjs="http://svgjs.com/svgjs" viewBox="0 1361 910 540"><svg width="697" height="507" xmlns="http://www.w3.org/2000/svg" xmlns:xlink="http://www.w3.org/1999/xlink" xmlns:svgjs="http://svgjs.com/svgjs" viewBox="0 2.607 697 501.786" fill="none" stroke-miterlimit="100" stroke="#78809e" stroke-width="3" y="1361"><svg xmlns="http://www.w3.org/2000/svg" xmlns:xlink="http://www.w3.org/1999/xlink" width="697" height="507" viewBox="0.178 0 703.711 506.617"><path paint-order="stroke fill markers" d="M.178 168.149c101.31-26.407 183.316-75.633 263.82-123.158 30.971-18.284 64.058-37.15 105.09-43.089 51.536-7.46 106.396 7.792 143.066 32.221 36.671 24.43 57.728 56.805 72.677 89.357 14.95 32.552 24.642 66.123 42.82 97.99 20.8 36.458 52.537 70.381 67.194 108.052 8.585 22.06 11.093 45.091 7.375 67.706-2.893 17.592-9.67 35.145-23.229 50.542-28.426 32.278-84.521 51.775-141.653 57.078-57.134 5.303-115.408-1.983-170.537-12.984-55.129-11-108.377-25.717-163.886-35.895-63.384-11.622-129.432-17.223-195.338-16.566l-7.4-271.254"/></svg></svg><svg width="910" height="540" xmlns="http://www.w3.org/2000/svg" xmlns:xlink="http://www.w3.org/1999/xlink" xmlns:svgjs="http://svgjs.com/svgjs" viewBox="0 12.711 910 514.577" fill="none" stroke-miterlimit="100" stroke="#78809e" stroke-width="3" y="1361"><svg xmlns="http://www.w3.org/2000/svg" width="910" height="540" viewBox="0.1 0 954.959 540"><path paint-order="stroke fill markers" d="M45.974 76.188c63.959 6.429 127.18-11.853 189.426-25.516 62.244-13.664 131.386-22.34 188.88 1.507 33.313 13.82 59.973 37.63 95.066 48.081 29.626 8.822 62.233 7.19 93.538 4.178 36.893-3.55 74.071-8.991 107.593-22.105 15.382-6.017 30.292-13.96 39.593-25.666 9.3-11.703 11.835-27.816 2.626-39.57-5.814-7.42-15.57-12.325-25.86-14.902-38.965-9.754-82.319 14.316-94.82 46.094-12.5 31.777.524 67.323 24.205 94.493 23.683 27.169 56.905 47.57 89.542 67.556 34.156 20.915 68.327 41.91 100.002 65.3 38.049 28.096 73.211 60.728 89.982 100.386 16.77 39.658 11.887 87.543-22.815 118.414-30.786 27.386-78.353 36.94-123.459 41.448-101.37 10.134-205.388 1.407-302.426-24.667-28.086-7.547-56.44-16.963-77.414-34.03-46.875-38.143-48.143-106.74-103.893-135.778-17.192-8.955-37.558-12.789-57.643-15.584-85.691-11.928-174.714-7.47-257.997 12.92l45.874-262.56"/></svg></svg></svg>