<svg width="143" height="28" xmlns="http://www.w3.org/2000/svg" xmlns:xlink="http://www.w3.org/1999/xlink" xmlns:svgjs="http://svgjs.com/svgjs" viewBox="240 39 143 28"><svg width="109" height="24" xmlns="http://www.w3.org/2000/svg" xmlns:xlink="http://www.w3.org/1999/xlink" xmlns:svgjs="http://svgjs.com/svgjs" viewBox="274 41 109 24" x="274" y="41"><svg width="19" height="24" xmlns="http://www.w3.org/2000/svg" xmlns:xlink="http://www.w3.org/1999/xlink" xmlns:svgjs="http://svgjs.com/svgjs" viewBox="0 0.233 19 23.534" fill="#fff" x="274" y="41"><svg xmlns="http://www.w3.org/2000/svg" xmlns:xlink="http://www.w3.org/1999/xlink" width="19" height="24" viewBox="0.604 0.755 18.157 22.49"><path paint-order="stroke fill markers" fill-rule="evenodd" d="M9.912 23.245c-5.524 0-8.972-2.96-9.308-7.599h4.7c.091 2.411 1.678 3.967 4.516 3.967 2.35 0 4.028-1.037 4.028-2.807 0-1.404-1.068-2.197-2.93-2.563l-3.6-.702c-3.326-.64-5.89-2.441-5.89-6.073 0-3.906 3.449-6.713 8.178-6.713 4.913 0 8.514 2.868 8.819 7.446h-4.7c-.152-2.289-1.738-3.845-4.058-3.845-2.258 0-3.54 1.281-3.54 2.807S7.501 9.3 9.087 9.604l3.754.763c3.845.763 5.92 2.533 5.92 5.768 0 4.18-3.357 7.11-8.85 7.11z"/></svg></svg><svg width="17" height="18" xmlns="http://www.w3.org/2000/svg" xmlns:xlink="http://www.w3.org/1999/xlink" xmlns:svgjs="http://svgjs.com/svgjs" viewBox="0 0.038 17 17.925" fill="#fff" x="294" y="47"><svg xmlns="http://www.w3.org/2000/svg" xmlns:xlink="http://www.w3.org/1999/xlink" width="17" height="18" viewBox="0.805 0.339 16.005 16.875"><path paint-order="stroke fill markers" fill-rule="evenodd" d="M8.952 17.214C4.1 17.214.805 13.857.805 8.731.805 3.88 4.192.34 8.891.34c5.157 0 8.575 4.18 7.812 9.49H5.2c.03 2.503 1.465 4.12 3.631 4.12 1.862 0 3.143-.915 3.632-2.533h4.18c-.915 3.662-3.753 5.798-7.69 5.798zM5.2 7.144h6.988c-.091-2.258-1.404-3.692-3.387-3.692-2.014 0-3.418 1.525-3.601 3.692z"/></svg></svg><svg width="17" height="18" xmlns="http://www.w3.org/2000/svg" xmlns:xlink="http://www.w3.org/1999/xlink" xmlns:svgjs="http://svgjs.com/svgjs" viewBox="0 0.038 17 17.925" fill="#fff" x="312" y="47"><svg xmlns="http://www.w3.org/2000/svg" xmlns:xlink="http://www.w3.org/1999/xlink" width="17" height="18" viewBox="0.412 0.339 16.005 16.875"><path paint-order="stroke fill markers" fill-rule="evenodd" d="M8.56 17.214c-4.852 0-8.148-3.357-8.148-8.483C.412 3.88 3.8.34 8.5.34c5.157 0 8.574 4.18 7.811 9.49H4.806c.03 2.503 1.465 4.12 3.632 4.12 1.861 0 3.143-.915 3.63-2.533h4.182c-.916 3.662-3.754 5.798-7.69 5.798zM4.806 7.144h6.988c-.091-2.258-1.403-3.692-3.387-3.692-2.014 0-3.418 1.525-3.6 3.692z"/></svg></svg><svg width="17" height="23" xmlns="http://www.w3.org/2000/svg" xmlns:xlink="http://www.w3.org/1999/xlink" xmlns:svgjs="http://svgjs.com/svgjs" viewBox="0.08 0 16.839 23" fill="#fff" x="330" y="42"><svg xmlns="http://www.w3.org/2000/svg" xmlns:xlink="http://www.w3.org/1999/xlink" width="17" height="23" viewBox="0.019 0.029 16.265 22.215"><path paint-order="stroke fill markers" fill-rule="evenodd" d="M12.408 19.59c-1.281 1.709-3.051 2.655-5.157 2.655-4.394 0-7.232-3.692-7.232-8.453 0-4.821 2.838-8.453 7.232-8.453 1.923 0 3.601.855 4.822 2.411V.03h4.21v21.91h-3.875v-2.35zm-4.21-1.129c2.105 0 3.875-1.648 3.844-4.73-.03-3.082-1.8-4.638-3.845-4.638-2.075 0-3.814 1.586-3.814 4.7 0 3.05 1.739 4.668 3.814 4.668z"/></svg></svg><svg width="17" height="18" xmlns="http://www.w3.org/2000/svg" xmlns:xlink="http://www.w3.org/1999/xlink" xmlns:svgjs="http://svgjs.com/svgjs" viewBox="0 0.038 17 17.925" fill="#fff" x="348" y="47"><svg xmlns="http://www.w3.org/2000/svg" xmlns:xlink="http://www.w3.org/1999/xlink" width="17" height="18" viewBox="0.847 0.339 16.005 16.875"><path paint-order="stroke fill markers" fill-rule="evenodd" d="M8.995 17.214c-4.853 0-8.148-3.357-8.148-8.483C.847 3.88 4.234.34 8.933.34c5.157 0 8.575 4.18 7.812 9.49H5.241c.03 2.503 1.465 4.12 3.631 4.12 1.861 0 3.143-.915 3.631-2.533h4.181c-.915 3.662-3.753 5.798-7.69 5.798zM5.24 7.144h6.987c-.09-2.258-1.403-3.692-3.387-3.692-2.013 0-3.417 1.525-3.6 3.692z"/></svg></svg><svg width="17" height="23" xmlns="http://www.w3.org/2000/svg" xmlns:xlink="http://www.w3.org/1999/xlink" xmlns:svgjs="http://svgjs.com/svgjs" viewBox="0.08 0 16.839 23" fill="#fff" x="366" y="42"><svg xmlns="http://www.w3.org/2000/svg" xmlns:xlink="http://www.w3.org/1999/xlink" width="17" height="23" viewBox="0.454 0.029 16.265 22.215"><path paint-order="stroke fill markers" fill-rule="evenodd" d="M12.844 19.59c-1.282 1.709-3.052 2.655-5.158 2.655-4.394 0-7.232-3.692-7.232-8.453 0-4.821 2.838-8.453 7.232-8.453 1.923 0 3.601.855 4.822 2.411V.03h4.21v21.91h-3.874v-2.35zm-4.212-1.129c2.106 0 3.876-1.648 3.845-4.73-.03-3.082-1.8-4.638-3.845-4.638-2.075 0-3.814 1.586-3.814 4.7 0 3.05 1.739 4.668 3.814 4.668z"/></svg></svg></svg><svg width="27" height="28" xmlns="http://www.w3.org/2000/svg" xmlns:xlink="http://www.w3.org/1999/xlink" xmlns:svgjs="http://svgjs.com/svgjs" viewBox="240 39 27 28" x="240" y="39"><svg width="27" height="28" xmlns="http://www.w3.org/2000/svg" xmlns:xlink="http://www.w3.org/1999/xlink" xmlns:svgjs="http://svgjs.com/svgjs" viewBox="0 0.5 27 27" fill="#fff" x="240" y="39"><svg xmlns="http://www.w3.org/2000/svg" xmlns:xlink="http://www.w3.org/1999/xlink" width="27" height="28" viewBox="0 0.842 26.314 26.315"><path paint-order="stroke fill markers" fill-rule="evenodd" d="M25.28 8.878a13.112 13.112 0 0 0-2.82-4.182A13.117 13.117 0 0 0 13.158.842a13.116 13.116 0 0 0-9.304 3.854A13.112 13.112 0 0 0 0 14a13.112 13.112 0 0 0 3.854 9.304 13.109 13.109 0 0 0 4.181 2.818 13.077 13.077 0 0 0 5.122 1.035v-3.561c0-.894-.638-1.654-1.515-1.825-5.107-.993-8.475-6.91-4.946-12.592a5.107 5.107 0 0 1 1.64-1.64c5.66-3.516 11.555-.186 12.581 4.888.186.915.99 1.573 1.924 1.573h3.473c0-1.775-.348-3.499-1.035-5.122z"/></svg></svg><svg width="6" height="6" xmlns="http://www.w3.org/2000/svg" xmlns:xlink="http://www.w3.org/1999/xlink" xmlns:svgjs="http://svgjs.com/svgjs" fill="#fff" x="250" y="50"><svg xmlns="http://www.w3.org/2000/svg" width="6" height="6" viewBox="0.541 0.383 5.233 5.233"><path paint-order="stroke fill markers" fill-rule="evenodd" d="M.54 1.648v3.968h4.076c.64 0 1.158-.518 1.158-1.157V.383H1.805C1.107.383.541.95.541 1.648z"/></svg></svg></svg></svg>