<svg xmlns="http://www.w3.org/2000/svg" xmlns:xlink="http://www.w3.org/1999/xlink" width="247" height="294" viewBox="0 0 247 294">
  <defs>
    <clipPath id="clip-path">
      <rect width="247" height="294" fill="none"/>
    </clipPath>
  </defs>
  <g id="Repeat_Grid_4" data-name="Repeat Grid 4" clip-path="url(#clip-path)">
    <g transform="translate(-1530 -552)">
      <circle id="Ellipse_3" data-name="Ellipse 3" cx="4.5" cy="4.5" r="4.5" transform="translate(1530 552)" fill="#78809e"/>
    </g>
    <g transform="translate(-1491 -552)">
      <circle id="Ellipse_3-2" data-name="Ellipse 3" cx="4.5" cy="4.5" r="4.5" transform="translate(1530 552)" fill="#78809e"/>
    </g>
    <g transform="translate(-1452 -552)">
      <circle id="Ellipse_3-3" data-name="Ellipse 3" cx="4.5" cy="4.5" r="4.5" transform="translate(1530 552)" fill="#78809e"/>
    </g>
    <g transform="translate(-1413 -552)">
      <circle id="Ellipse_3-4" data-name="Ellipse 3" cx="4.5" cy="4.5" r="4.5" transform="translate(1530 552)" fill="#78809e"/>
    </g>
    <g transform="translate(-1374 -552)">
      <circle id="Ellipse_3-5" data-name="Ellipse 3" cx="4.5" cy="4.5" r="4.5" transform="translate(1530 552)" fill="#78809e"/>
    </g>
    <g transform="translate(-1335 -552)">
      <circle id="Ellipse_3-6" data-name="Ellipse 3" cx="4.5" cy="4.5" r="4.5" transform="translate(1530 552)" fill="#78809e"/>
    </g>
    <g transform="translate(-1296 -552)">
      <circle id="Ellipse_3-7" data-name="Ellipse 3" cx="4.5" cy="4.5" r="4.5" transform="translate(1530 552)" fill="#78809e"/>
    </g>
    <g transform="translate(-1530 -517)">
      <circle id="Ellipse_3-8" data-name="Ellipse 3" cx="4.5" cy="4.5" r="4.5" transform="translate(1530 552)" fill="#78809e"/>
    </g>
    <g transform="translate(-1491 -517)">
      <circle id="Ellipse_3-9" data-name="Ellipse 3" cx="4.5" cy="4.5" r="4.5" transform="translate(1530 552)" fill="#78809e"/>
    </g>
    <g transform="translate(-1452 -517)">
      <circle id="Ellipse_3-10" data-name="Ellipse 3" cx="4.5" cy="4.5" r="4.5" transform="translate(1530 552)" fill="#78809e"/>
    </g>
    <g transform="translate(-1413 -517)">
      <circle id="Ellipse_3-11" data-name="Ellipse 3" cx="4.5" cy="4.5" r="4.5" transform="translate(1530 552)" fill="#78809e"/>
    </g>
    <g transform="translate(-1374 -517)">
      <circle id="Ellipse_3-12" data-name="Ellipse 3" cx="4.5" cy="4.5" r="4.5" transform="translate(1530 552)" fill="#78809e"/>
    </g>
    <g transform="translate(-1335 -517)">
      <circle id="Ellipse_3-13" data-name="Ellipse 3" cx="4.5" cy="4.5" r="4.5" transform="translate(1530 552)" fill="#78809e"/>
    </g>
    <g transform="translate(-1296 -517)">
      <circle id="Ellipse_3-14" data-name="Ellipse 3" cx="4.5" cy="4.5" r="4.5" transform="translate(1530 552)" fill="#78809e"/>
    </g>
    <g transform="translate(-1530 -482)">
      <circle id="Ellipse_3-15" data-name="Ellipse 3" cx="4.5" cy="4.5" r="4.5" transform="translate(1530 552)" fill="#78809e"/>
    </g>
    <g transform="translate(-1491 -482)">
      <circle id="Ellipse_3-16" data-name="Ellipse 3" cx="4.5" cy="4.5" r="4.5" transform="translate(1530 552)" fill="#78809e"/>
    </g>
    <g transform="translate(-1452 -482)">
      <circle id="Ellipse_3-17" data-name="Ellipse 3" cx="4.5" cy="4.5" r="4.5" transform="translate(1530 552)" fill="#78809e"/>
    </g>
    <g transform="translate(-1413 -482)">
      <circle id="Ellipse_3-18" data-name="Ellipse 3" cx="4.5" cy="4.5" r="4.5" transform="translate(1530 552)" fill="#78809e"/>
    </g>
    <g transform="translate(-1374 -482)">
      <circle id="Ellipse_3-19" data-name="Ellipse 3" cx="4.5" cy="4.5" r="4.5" transform="translate(1530 552)" fill="#78809e"/>
    </g>
    <g transform="translate(-1335 -482)">
      <circle id="Ellipse_3-20" data-name="Ellipse 3" cx="4.5" cy="4.5" r="4.5" transform="translate(1530 552)" fill="#78809e"/>
    </g>
    <g transform="translate(-1296 -482)">
      <circle id="Ellipse_3-21" data-name="Ellipse 3" cx="4.5" cy="4.5" r="4.5" transform="translate(1530 552)" fill="#78809e"/>
    </g>
    <g transform="translate(-1530 -447)">
      <circle id="Ellipse_3-22" data-name="Ellipse 3" cx="4.5" cy="4.5" r="4.5" transform="translate(1530 552)" fill="#78809e"/>
    </g>
    <g transform="translate(-1491 -447)">
      <circle id="Ellipse_3-23" data-name="Ellipse 3" cx="4.5" cy="4.5" r="4.5" transform="translate(1530 552)" fill="#78809e"/>
    </g>
    <g transform="translate(-1452 -447)">
      <circle id="Ellipse_3-24" data-name="Ellipse 3" cx="4.5" cy="4.5" r="4.5" transform="translate(1530 552)" fill="#78809e"/>
    </g>
    <g transform="translate(-1413 -447)">
      <circle id="Ellipse_3-25" data-name="Ellipse 3" cx="4.5" cy="4.5" r="4.5" transform="translate(1530 552)" fill="#78809e"/>
    </g>
    <g transform="translate(-1374 -447)">
      <circle id="Ellipse_3-26" data-name="Ellipse 3" cx="4.5" cy="4.5" r="4.5" transform="translate(1530 552)" fill="#78809e"/>
    </g>
    <g transform="translate(-1335 -447)">
      <circle id="Ellipse_3-27" data-name="Ellipse 3" cx="4.5" cy="4.5" r="4.5" transform="translate(1530 552)" fill="#78809e"/>
    </g>
    <g transform="translate(-1296 -447)">
      <circle id="Ellipse_3-28" data-name="Ellipse 3" cx="4.5" cy="4.5" r="4.5" transform="translate(1530 552)" fill="#78809e"/>
    </g>
    <g transform="translate(-1530 -412)">
      <circle id="Ellipse_3-29" data-name="Ellipse 3" cx="4.5" cy="4.5" r="4.5" transform="translate(1530 552)" fill="#78809e"/>
    </g>
    <g transform="translate(-1491 -412)">
      <circle id="Ellipse_3-30" data-name="Ellipse 3" cx="4.5" cy="4.5" r="4.5" transform="translate(1530 552)" fill="#78809e"/>
    </g>
    <g transform="translate(-1452 -412)">
      <circle id="Ellipse_3-31" data-name="Ellipse 3" cx="4.5" cy="4.5" r="4.5" transform="translate(1530 552)" fill="#78809e"/>
    </g>
    <g transform="translate(-1413 -412)">
      <circle id="Ellipse_3-32" data-name="Ellipse 3" cx="4.5" cy="4.5" r="4.5" transform="translate(1530 552)" fill="#78809e"/>
    </g>
    <g transform="translate(-1374 -412)">
      <circle id="Ellipse_3-33" data-name="Ellipse 3" cx="4.5" cy="4.5" r="4.5" transform="translate(1530 552)" fill="#78809e"/>
    </g>
    <g transform="translate(-1335 -412)">
      <circle id="Ellipse_3-34" data-name="Ellipse 3" cx="4.5" cy="4.5" r="4.5" transform="translate(1530 552)" fill="#78809e"/>
    </g>
    <g transform="translate(-1296 -412)">
      <circle id="Ellipse_3-35" data-name="Ellipse 3" cx="4.5" cy="4.5" r="4.5" transform="translate(1530 552)" fill="#78809e"/>
    </g>
    <g transform="translate(-1530 -377)">
      <circle id="Ellipse_3-36" data-name="Ellipse 3" cx="4.5" cy="4.5" r="4.5" transform="translate(1530 552)" fill="#78809e"/>
    </g>
    <g transform="translate(-1491 -377)">
      <circle id="Ellipse_3-37" data-name="Ellipse 3" cx="4.5" cy="4.5" r="4.5" transform="translate(1530 552)" fill="#78809e"/>
    </g>
    <g transform="translate(-1452 -377)">
      <circle id="Ellipse_3-38" data-name="Ellipse 3" cx="4.5" cy="4.5" r="4.5" transform="translate(1530 552)" fill="#78809e"/>
    </g>
    <g transform="translate(-1413 -377)">
      <circle id="Ellipse_3-39" data-name="Ellipse 3" cx="4.5" cy="4.5" r="4.5" transform="translate(1530 552)" fill="#78809e"/>
    </g>
    <g transform="translate(-1374 -377)">
      <circle id="Ellipse_3-40" data-name="Ellipse 3" cx="4.5" cy="4.5" r="4.5" transform="translate(1530 552)" fill="#78809e"/>
    </g>
    <g transform="translate(-1335 -377)">
      <circle id="Ellipse_3-41" data-name="Ellipse 3" cx="4.5" cy="4.5" r="4.5" transform="translate(1530 552)" fill="#78809e"/>
    </g>
    <g transform="translate(-1296 -377)">
      <circle id="Ellipse_3-42" data-name="Ellipse 3" cx="4.5" cy="4.5" r="4.5" transform="translate(1530 552)" fill="#78809e"/>
    </g>
    <g transform="translate(-1530 -342)">
      <circle id="Ellipse_3-43" data-name="Ellipse 3" cx="4.5" cy="4.5" r="4.5" transform="translate(1530 552)" fill="#78809e"/>
    </g>
    <g transform="translate(-1491 -342)">
      <circle id="Ellipse_3-44" data-name="Ellipse 3" cx="4.5" cy="4.5" r="4.5" transform="translate(1530 552)" fill="#78809e"/>
    </g>
    <g transform="translate(-1452 -342)">
      <circle id="Ellipse_3-45" data-name="Ellipse 3" cx="4.5" cy="4.5" r="4.5" transform="translate(1530 552)" fill="#78809e"/>
    </g>
    <g transform="translate(-1413 -342)">
      <circle id="Ellipse_3-46" data-name="Ellipse 3" cx="4.5" cy="4.5" r="4.5" transform="translate(1530 552)" fill="#78809e"/>
    </g>
    <g transform="translate(-1374 -342)">
      <circle id="Ellipse_3-47" data-name="Ellipse 3" cx="4.5" cy="4.5" r="4.5" transform="translate(1530 552)" fill="#78809e"/>
    </g>
    <g transform="translate(-1335 -342)">
      <circle id="Ellipse_3-48" data-name="Ellipse 3" cx="4.5" cy="4.5" r="4.5" transform="translate(1530 552)" fill="#78809e"/>
    </g>
    <g transform="translate(-1296 -342)">
      <circle id="Ellipse_3-49" data-name="Ellipse 3" cx="4.5" cy="4.5" r="4.5" transform="translate(1530 552)" fill="#78809e"/>
    </g>
    <g transform="translate(-1530 -307)">
      <circle id="Ellipse_3-50" data-name="Ellipse 3" cx="4.5" cy="4.5" r="4.5" transform="translate(1530 552)" fill="#78809e"/>
    </g>
    <g transform="translate(-1491 -307)">
      <circle id="Ellipse_3-51" data-name="Ellipse 3" cx="4.5" cy="4.5" r="4.5" transform="translate(1530 552)" fill="#78809e"/>
    </g>
    <g transform="translate(-1452 -307)">
      <circle id="Ellipse_3-52" data-name="Ellipse 3" cx="4.5" cy="4.5" r="4.5" transform="translate(1530 552)" fill="#78809e"/>
    </g>
    <g transform="translate(-1413 -307)">
      <circle id="Ellipse_3-53" data-name="Ellipse 3" cx="4.5" cy="4.5" r="4.5" transform="translate(1530 552)" fill="#78809e"/>
    </g>
    <g transform="translate(-1374 -307)">
      <circle id="Ellipse_3-54" data-name="Ellipse 3" cx="4.5" cy="4.5" r="4.5" transform="translate(1530 552)" fill="#78809e"/>
    </g>
    <g transform="translate(-1335 -307)">
      <circle id="Ellipse_3-55" data-name="Ellipse 3" cx="4.5" cy="4.5" r="4.5" transform="translate(1530 552)" fill="#78809e"/>
    </g>
    <g transform="translate(-1296 -307)">
      <circle id="Ellipse_3-56" data-name="Ellipse 3" cx="4.5" cy="4.5" r="4.5" transform="translate(1530 552)" fill="#78809e"/>
    </g>
    <g transform="translate(-1530 -272)">
      <circle id="Ellipse_3-57" data-name="Ellipse 3" cx="4.5" cy="4.5" r="4.5" transform="translate(1530 552)" fill="#78809e"/>
    </g>
    <g transform="translate(-1491 -272)">
      <circle id="Ellipse_3-58" data-name="Ellipse 3" cx="4.5" cy="4.5" r="4.5" transform="translate(1530 552)" fill="#78809e"/>
    </g>
    <g transform="translate(-1452 -272)">
      <circle id="Ellipse_3-59" data-name="Ellipse 3" cx="4.5" cy="4.5" r="4.5" transform="translate(1530 552)" fill="#78809e"/>
    </g>
    <g transform="translate(-1413 -272)">
      <circle id="Ellipse_3-60" data-name="Ellipse 3" cx="4.5" cy="4.5" r="4.5" transform="translate(1530 552)" fill="#78809e"/>
    </g>
    <g transform="translate(-1374 -272)">
      <circle id="Ellipse_3-61" data-name="Ellipse 3" cx="4.5" cy="4.5" r="4.5" transform="translate(1530 552)" fill="#78809e"/>
    </g>
    <g transform="translate(-1335 -272)">
      <circle id="Ellipse_3-62" data-name="Ellipse 3" cx="4.5" cy="4.5" r="4.5" transform="translate(1530 552)" fill="#78809e"/>
    </g>
    <g transform="translate(-1296 -272)">
      <circle id="Ellipse_3-63" data-name="Ellipse 3" cx="4.5" cy="4.5" r="4.5" transform="translate(1530 552)" fill="#78809e"/>
    </g>
  </g>
</svg>
