<svg xmlns="http://www.w3.org/2000/svg" width="246.198" height="121.646" viewBox="0 0 246.198 121.646">
  <g id="step3_seed" transform="translate(1.5)">
    <line id="Line_21" data-name="Line 21" x2="209.127" transform="translate(16.213 120.146)" fill="none" stroke="#fff" stroke-linecap="round" stroke-linejoin="round" stroke-width="3"/>
    <line id="Line_22" data-name="Line 22" x2="9.869" transform="translate(0 120.146)" fill="none" stroke="#fff" stroke-linecap="round" stroke-linejoin="round" stroke-width="3"/>
    <line id="Line_23" data-name="Line 23" x2="9.869" transform="translate(233.329 120.146)" fill="none" stroke="#fff" stroke-linecap="round" stroke-linejoin="round" stroke-width="3"/>
    <g id="Group_55" data-name="Group 55" transform="translate(100.506 102.721)">
      <path id="Path_100" data-name="Path 100" d="M589.015,187.915c.876-.67.378-1.528,1.293-2.873.067-.1,1.34-1.917,2.949-1.85,1.112.045,1.477.955,2.02.724.811-.348.034-2.407,1.36-4.3a3.01,3.01,0,0,1,3.077-1.34,2.491,2.491,0,0,1,3.181-1.639c.665.344.486.919,1.151,1.562,1.1,1.068,3.246-.034,3.765,3.549a7.523,7.523,0,0,1,4-2.58c3.47-.65,4.01,1.342,7.384,4.215a4.285,4.285,0,0,1,7.3.7,4.959,4.959,0,0,1,3.967,5.033,3.417,3.417,0,0,1,3.073,5.7l-46.588.288c-2.758-1.964-2.187-5.453-.539-6.516C587.433,187.933,588.155,188.574,589.015,187.915Z" transform="translate(-585.03 -176.468)" fill="#fff"/>
      <path id="Path_101" data-name="Path 101" d="M601.663,181.986c-.007.5-.429.548-.6,1.218-.274,1.068.63,1.6.294,2.1-.436.654-2.03-.119-3.516.742-.722.42-.544.7-1.5,1.308a3.285,3.285,0,0,1-2.509.737,1.935,1.935,0,0,1-1.357-1.578c-.113-1.115,1.171-1.486,1.04-2.428-.15-1.094-1.964-1.185-2.083-2.182s1.5-2.272,2.832-2.182c1.1.074,1.241,1.029,2.441,1.128s1.558-.838,2.762-.726C600.595,180.227,601.672,181.179,601.663,181.986Z" transform="translate(-579.904 -173.862)" fill="#fff"/>
      <path id="Path_102" data-name="Path 102" d="M596.59,178.529c1.448-.054,2.664,1.212,1.511,2.785a2.132,2.132,0,0,1-1.771.859c-.677-.079-.582-.677-1.49-1.083-.839-.375-1.3-.032-1.765-.414a1.271,1.271,0,0,1-.016-1.879c.436-.247,1.029.189,1.339-.07s-.211-.839.131-1.274C595.187,176.616,597.073,177.3,596.59,178.529Z" transform="translate(-578.92 -175.974)" fill="#fff"/>
      <path id="Path_103" data-name="Path 103" d="M595.794,178.524c.964-.034,1.771.807,1,1.852a1.416,1.416,0,0,1-1.176.571c-.45-.052-.385-.45-.989-.719-.558-.249-.866-.023-1.175-.276a.847.847,0,0,1-.011-1.25c.29-.164.684.128.89-.045s-.139-.558.087-.847C594.89,177.218,596.107,177.729,595.794,178.524Z" transform="translate(-578.5 -175.597)" fill="#fff"/>
      <path id="Path_104" data-name="Path 104" d="M602.057,182.979c.249.778-.6,1.32-.249,1.812.229.319.638.166,1.057.6a1.136,1.136,0,0,1-.335,1.888c-.515.232-.809-.083-1.418.133-.519.186-.44.461-.944.636a2.316,2.316,0,0,1-1.58-.142c-.432-.195-.373-.34-.994-.728s-.74-.288-1.034-.542a1.419,1.419,0,0,1-.366-1.809c.36-.449,2.133-.7,2.493-1.066.328-.331.094-.558.384-.987a1.873,1.873,0,0,1,1.749-.766A1.567,1.567,0,0,1,602.057,182.979Z" transform="translate(-576.239 -172.045)" fill="#fff"/>
      <path id="Path_105" data-name="Path 105" d="M609.761,187.317c-.542-.177-.423-1.048-.9-1.146-.346-.068-.522.366-1.11.584a2.663,2.663,0,0,1-2.681-.656c-.535-.605-.749-1.67-.128-2.108a1.748,1.748,0,0,1,1.783.085c.63.429.458,1.133.9,1.241s.74-.618,1.443-.681c.982-.086,2.345,1.176,2.021,2A1.265,1.265,0,0,1,609.761,187.317Z" transform="translate(-569.376 -170.604)" fill="#fff"/>
      <path id="Path_106" data-name="Path 106" d="M592.758,184.793c.51.281.564,1.335.016,1.976-1.185,1.389-4.741.211-4.6-.677.056-.355.728-.36.89-.843s-.395-.749-.25-1.137c.227-.607,1.928-.872,2.3-.438.274.322-.313.89-.032,1.148C591.39,185.11,592.235,184.5,592.758,184.793Z" transform="translate(-582.515 -170.863)" fill="#fff"/>
      <path id="Path_107" data-name="Path 107" d="M591.586,181.337c.445.339.115.749.582,1.308.6.721,1.5.454,1.89,1.074a1.309,1.309,0,0,1-.566,1.776c-.413.157-.883-.045-1.54-.326-.922-.395-.926-.672-1.567-.852-.958-.27-1.474.209-1.9-.085-.591-.413-.438-1.956.647-2.688A2.41,2.41,0,0,1,591.586,181.337Z" transform="translate(-582.532 -172.766)" fill="#fff"/>
      <path id="Path_108" data-name="Path 108" d="M605.927,179.969c.416.818-.427,3.731.085,4.632.577,1.014,1.744.805,2.3,1.838,1.128,2.075-1.7,3.342-3.27,2.378-.548-.335-.378-.728-.94-1.009-1.12-.562-2.85,1.178-3.059-1.91-.05-.737.193-.805.041-1.16-.353-.836-1.751-.567-2.479-1.465a1.7,1.7,0,0,1,.1-2.311c.632-.416,1.573.207,2.047-.211s-.294-1.187.162-1.8C601.645,177.97,605.084,178.312,605.927,179.969Z" transform="translate(-574.467 -174.915)" fill="#fff"/>
      <path id="Path_109" data-name="Path 109" d="M604.821,180.294c.322.632-.348,2.846.065,3.574.445.784,1.346.621,1.78,1.42.868,1.6-1.31,2.578-2.524,1.834-.423-.259-.292-.562-.726-.778-.865-.434-2.2.908-2.362-1.474-.038-.569.15-.622.034-.9-.274-.645-1.353-.438-1.915-1.13a1.314,1.314,0,0,1,.077-1.785c.49-.321,1.216.16,1.58-.162s-.225-.915.126-1.391C601.547,178.711,604.192,179.058,604.821,180.294Z" transform="translate(-573.942 -174.374)" fill="#fff"/>
      <path id="Path_110" data-name="Path 110" d="M608.849,181.292c.7.686.523,1.353,1.2,1.591.65.231,1.038-.312,2.025-.159,3.18.5,1.236,4.192-1.144,4.657a3.181,3.181,0,0,1-2.706-.566c-.5-.528-.146-.978-.688-1.448-.515-.449-1.034-.209-2.03-.567-.277-.1-1.551-.558-1.87-1.441C602.935,181.423,606.464,178.966,608.849,181.292Z" transform="translate(-570.193 -173.359)" fill="#fff"/>
    </g>
    <g id="Group_62" data-name="Group 62" transform="translate(66.55)">
      <g id="Group_60" data-name="Group 60" transform="translate(0 10.031)">
        <g id="Group_56" data-name="Group 56" transform="translate(0 13.015)">
          <path id="Path_111" data-name="Path 111" d="M604.888,149.208c-12.407-3.759-24.947,1.289-28.763,14.173l.26-.063c6.469-17.716,29.51-18.734,34.293,10.2.085-.257.208-.419.4-.457.832-.164,1.311,2.36,3.074,2.757,1.843.413,4.077-1.714,5.147-3.5C622.67,166.7,619.256,153.561,604.888,149.208Z" transform="translate(-576.125 -147.995)" fill="#fff"/>
          <path id="Path_112" data-name="Path 112" d="M576.22,161.578c7.9-1.911,11.427-.5,13.169,1.248,3.167,3.181.58,7.619,4.632,13.305,5.41,7.592,11.959,6.059,14.409,3.293,2.229-2.516,1.648-6.338,2.083-7.652C605.725,142.8,582.692,143.86,576.22,161.578Z" transform="translate(-575.96 -146.255)" fill="#fff"/>
          <path id="Path_113" data-name="Path 113" d="M595.558,158.581c-2.119-7.422-11.939-9.048-18.288-2.7,5.916-.953,8.78.309,10.294,1.832,3.167,3.181.58,7.619,4.632,13.305.72,1.01,3.995,5.607,8.851,5.558a9.143,9.143,0,0,0,2.521-.394C598.677,172.53,596.771,165.13,595.558,158.581Z" transform="translate(-574.135 -141.139)" fill="#fff"/>
          <path id="Path_114" data-name="Path 114" d="M576.22,161.184c1.032-.246,1.988-.441,2.875-.583,6.245-6.242,16.128-4.865,18.288,2.7,1.213,6.549,3.118,13.949,8.011,17.6,5.728-1.749,4.55-7.8,5.12-9.522,4.887,1.733,9.136-1.169,8.733-8.279-.2-3.581-2.2-6.182-2.469-6.083s1.216,2.872-.005,5.325c-.463.931-1.4,1.993-1.993,1.8-1.038-.331.389-4.134-1.424-8.268-.991-2.259-2.59-3.8-2.949-3.614s.854,2.135.476,4.849c-.214,1.53-.964,3.521-1.755,3.521-1.136,0-.767-4.107-3.663-7.512a12.008,12.008,0,0,0-7.129-3.9c-.014.03,2.776.736,3.422,2.754a2.2,2.2,0,0,1-.32,2.207c-.975.808-3-.742-5.317-1.591C590.163,150.419,580.737,152.762,576.22,161.184Z" transform="translate(-575.96 -145.86)" fill="#fff"/>
        </g>
        <g id="Group_57" data-name="Group 57" transform="translate(66.313)">
          <path id="Path_115" data-name="Path 115" d="M608.98,168.458c-10.858-3.291-9.651-14.852-6.185-19.887,4.95-7.189,21.1-7.359,39.651,1.04.205,4.865-.142,15.008-6.85,23.931-2.776,3.693-7.852,10.447-14.674,9.741C615.033,182.673,608.761,176.37,608.98,168.458Z" transform="translate(-600.347 -143.241)" fill="#fff"/>
          <path id="Path_116" data-name="Path 116" d="M642.479,146.223c-1.246,4.865-2.817,9.612-6.171,13.366-3.918,4.315-10.242,8.375-16.224,6.866-3.74-.589-4.312-5.328-2.144-8.317-5.922.444-13.672-1.309-17.59-6.2.019,5.64,3.179,9.683,8.624,11.334-.216,7.808,5.963,14.206,11.942,14.825,6.822.706,11.9-6.048,14.674-9.741C641.559,160.421,642.49,151.518,642.479,146.223Z" transform="translate(-600.341 -138.059)" fill="#fff"/>
          <path id="Path_117" data-name="Path 117" d="M641.214,148.739c-2.412,4.041-6.521,6.7-11.43,6.294a9.176,9.176,0,0,1,6.442-4.7c-.036-.164-2.9-.375-5.905,1.117-3.184,1.577-3.181,3.409-6.259,4.734-2.149.925-5.1,1.3-5.689.3-.613-1.049,1.311-3.576,3.4-4.972a13.278,13.278,0,0,1,4.041-1.613c-.107-.5-6.907.545-11.159,3.915-2.357,1.867-3.124,3.586-3.567,3.381-.5-.233-.312-2.82,1.112-4.859,2.2-3.146,6.187-3.357,6.089-3.786s-4.255-.786-7.321,1.692a8.958,8.958,0,0,0-2.741,3.964,8,8,0,0,1,3.012-10.768c-6.866,1.377-10.907,5.514-10.883,13.358a11.334,11.334,0,0,0,17.59,6.2c-9.856,5.2-2.445,14.42,4.578,15.359,8.7,1.164,20.722-13.744,19.923-29.067Z" transform="translate(-600.341 -142.908)" fill="#fff"/>
        </g>
        <g id="Group_59" data-name="Group 59" transform="translate(17.097 9.461)">
          <path id="Path_118" data-name="Path 118" d="M597.662,197.145c-2.431-20.484,4.884-30.422,36.431-39.93-7.556,5.481-22.373-.734-34.083,14.236-2.07-5.878,2.661-24.1,2.661-24.1-.148-.041-4.936,14.091-5.3,21.092-.175,3.409-.726,6.19-.728,8.123-19.055,33.141,9.366,29.185,8.4,61.2l13.626.34C618.321,213.391,598.908,207.647,597.662,197.145Z" transform="translate(-569.014 -145.557)" fill="#fff"/>
          <path id="Path_119" data-name="Path 119" d="M616.257,222.164a182.316,182.316,0,0,1-14.381-15.909,20.462,20.462,0,0,1-4.9-12.591c-1.911-27.323,12.188-27.955,36.615-37.447-12.306,4.43-24.988,2.91-33.239,14.236-.238-.679,2.1-21.79,1.935-22.526-1.591,2-5.128,24.886-5.3,27.6a73.222,73.222,0,0,0-4.52,9.73c-.151-.271-1.829,4.89-1.922,5.185.044.183.088.364.131.539-3,18.466,15.5,19.619,14.713,45.784l13.623.339A44.5,44.5,0,0,0,616.257,222.164Z" transform="translate(-568.508 -144.56)" fill="#fff"/>
          <g id="Group_58" data-name="Group 58">
            <path id="Path_120" data-name="Path 120" d="M599.181,146.7c-.668.569-5.117,17.962-5.99,22.844a46.616,46.616,0,0,0-.728,8.019,58.756,58.756,0,0,1,2.9-6.573C596.148,164.186,599.181,146.7,599.181,146.7Z" transform="translate(-564.831 -146.697)" fill="#fff"/>
            <path id="Path_121" data-name="Path 121" d="M609.9,171.137a62.221,62.221,0,0,0-4.413,9.5,43.039,43.039,0,0,0-6.814-16.1,43.546,43.546,0,0,0-16.3-13.976s11.463,5.552,17.686,20.21c4.731,11.148,3.2,17.7,3.395,20.618.975,14.573,15.668,17,14.954,40.752l2.4.194c2.163-10.121.419-16.657-1.557-20.744-4.572-9.456-13.659-10.606-11.871-29.65A41.217,41.217,0,0,1,609.9,171.137Z" transform="translate(-582.37 -139.979)" fill="#fff"/>
          </g>
        </g>
      </g>
      <g id="Group_61" data-name="Group 61" transform="translate(39.09)">
        <path id="Path_122" data-name="Path 122" d="M612.918,140.286c-3.085,9.875,2.91,11.378,3.682,14.392,1.5,5.859-6.253,12.375-11.146,9.689a6.336,6.336,0,0,1-2.927-4.432c-4.107,6.124-10.431,3.543-11.926-2.976C588.788,149.036,599.6,136.453,612.918,140.286Z" transform="translate(-590.403 -139.577)" fill="#fff"/>
        <path id="Path_123" data-name="Path 123" d="M590.6,157.607a7.94,7.94,0,0,0,2.223,2.669c.227.172,1.552,1.158,1.922.84.287-.249-.372-1-.465-2.39a4.678,4.678,0,0,1,.547-2.839c.123.022-.616,1.911.257,3.6,1.227,2.371,3.606,1.922,4.137.9.578-1.109-1.306-2.286-1.834-4.5-.843-3.54,2.42-6.995,2.448-6.981s-2.574,2.968-1.878,6.2c.515,2.4,3.466,6.1,4.348,1.7,2.333,4.742,7.132,3.633,7.816-1.435.638-4.736-4.14-7.261,2.469-15.542-3.088,9.875,2.908,11.378,3.68,14.392,1.5,5.859-6.253,12.375-11.146,9.689a6.336,6.336,0,0,1-2.927-4.432C598.511,164.977,592.83,163.723,590.6,157.607Z" transform="translate(-590.068 -139.127)" fill="#fff"/>
      </g>
    </g>
  </g>
</svg>
