<svg width="41" height="40" xmlns="http://www.w3.org/2000/svg" xmlns:xlink="http://www.w3.org/1999/xlink" xmlns:svgjs="http://svgjs.com/svgjs" viewBox="37 111 41 40"><svg width="41" height="40" xmlns="http://www.w3.org/2000/svg" xmlns:xlink="http://www.w3.org/1999/xlink" xmlns:svgjs="http://svgjs.com/svgjs" viewBox="0.5 0 40 40" fill="#96a4dc" x="37" y="111"><svg xmlns="http://www.w3.org/2000/svg" xmlns:xlink="http://www.w3.org/1999/xlink" width="41" height="40" viewBox="1 0 40 40"><path paint-order="stroke fill markers" fill-rule="evenodd" d="M40.414 3.882h-18.26V.586A.586.586 0 0 0 21.566 0h-3.655a.586.586 0 0 0-.586.586v3.296h-7.17a.586.586 0 0 0-.587.586v5.037a4.457 4.457 0 0 0-1.061.79V8.571c0-1.062-1.057-1.934-2.63-2.224V5.076a.586.586 0 0 0-.585-.586 4.485 4.485 0 0 0-2.894 1.095A3.997 3.997 0 0 0 1 8.645v2.454c0 .757 1.173.757 1.173 0V8.644c0-1.283.954-2.656 2.535-2.932V28.19c-.92.115-1.859.483-2.533 1.13l-.002-15.107c0-.757-1.172-.757-1.172 0v18.2c0 .034.003.066.008.097.058 1.719 1.648 3.003 3.746 3.003 1.015 0 1.924-.289 2.593-.765v2.154c0 1.98 1.981 3.099 3.755 3.099 1.883 0 3.753-1.06 3.753-3.1l-.001-8.284H31.54L19.38 38.968c-.406.346-.153 1.032.38 1.032h17.647a.586.586 0 0 0 .586-.586v-2.842c0-.758-1.172-.758-1.172 0v2.256H21.354l15.468-13.17v7.681c0 .758 1.172.758 1.172 0v-4.723h2.42A.586.586 0 0 0 41 28.03V19.85 4.468a.586.586 0 0 0-.586-.586zm-.586 1.172v14.211H26.105V5.055h13.723zM20.982 1.172v14.995h-2.484V14.67h.425c.758 0 .758-1.172 0-1.172h-.425v-1.535h.972c.758 0 .758-1.172 0-1.172h-.972V9.255h.425a.586.586 0 1 0 0-1.171h-.425V6.548h.972c.758 0 .758-1.172 0-1.172h-.972V3.841h.425c.758 0 .758-1.172 0-1.172h-.425V1.172h2.484zm-10.727 9.28c.253-.12.518-.204.795-.253l.004 22.477c-.653.082-1.708.339-2.533 1.132l-.002-1.413-.003-19.263c0-1.05.64-2.16 1.739-2.68zm3.428 24.738a2.67 2.67 0 0 0-.06-.033c-.672-.37-1.55-.575-2.475-.582v-.728c.28-.039.469-.036.473-.036.367-.024.569-.22.605-.586l-.003-21.187c.776.192 1.456.586 1.457 1.021l.003 22.131zM7.336 8.572v22.123c-.653-.375-1.535-.6-2.535-.607v-.729c.28-.039.469-.036.473-.036.367-.024.569-.22.605-.585V7.547c.892.213 1.457.656 1.457 1.025zm0 24.119c0 .894-1.183 1.65-2.582 1.65-1.469 0-2.576-.83-2.576-1.928 0-1.113.403-2.167 1.45-2.7v.986c.042.383.256.578.642.583.814-.076 1.714.015 2.442.415.42.23.658.523.624.994zm3.766 6.137c-1.47 0-2.577-.828-2.577-1.927 0-1.113.403-2.167 1.45-2.7l.001.986c.042.383.255.578.64.583.995-.094 3.115.066 3.067 1.407 0 .895-1.182 1.65-2.581 1.651zm3.75-25.769c0-1.055-1.061-1.932-2.63-2.223V9.564c-.034-.358-.229-.553-.586-.586-.299 0-.6.034-.895.098V5.054h6.585v11.7c0 .323.262.585.586.585h3.655a.586.586 0 0 0 .586-.586V5.054h2.78v22.39h-10.08l-.002-14.385zm22.801 10.8a.586.586 0 0 0-.625.085l-4.111 3.5h-6.812v-7.007h13.723v7.007h-1.834V24.39a.586.586 0 0 0-.34-.532z"/></svg></svg><svg width="10" height="10" xmlns="http://www.w3.org/2000/svg" xmlns:xlink="http://www.w3.org/1999/xlink" xmlns:svgjs="http://svgjs.com/svgjs" viewBox="0 0.005 10 9.99" fill="#96a4dc" x="65" y="118"><svg xmlns="http://www.w3.org/2000/svg" xmlns:xlink="http://www.w3.org/1999/xlink" width="10" height="10" viewBox="0.331 0.529 9.271 9.261"><path paint-order="stroke fill markers" fill-rule="evenodd" d="M.917 9.79h5.399a.59.59 0 0 0 .415-.172l2.7-2.697c.11-.11.17-.26.17-.415V1.115a.595.595 0 0 0-.586-.586h-5.4a.586.586 0 0 0-.413.172L.503 3.397a.595.595 0 0 0-.172.415v5.392c0 .324.263.586.586.586zm.586-5.392H5.73v4.22H1.503v-4.22zm5.399 3.393V4.055L8.43 2.528v3.736L6.902 7.79zM3.858 1.7H7.6L6.074 3.226H2.332l1.526-1.525z"/></svg></svg><svg width="4" height="2" xmlns="http://www.w3.org/2000/svg" xmlns:xlink="http://www.w3.org/1999/xlink" xmlns:svgjs="http://svgjs.com/svgjs" viewBox="0 0.239 4 1.523" fill="#96a4dc" x="66" y="135"><svg xmlns="http://www.w3.org/2000/svg" xmlns:xlink="http://www.w3.org/1999/xlink" width="4" height="2" viewBox="0.179 0.538 3.078 1.172"><path paint-order="stroke fill markers" fill-rule="evenodd" d="M2.688.538H.747c-.758 0-.758 1.172 0 1.172h1.941c.758 0 .758-1.172 0-1.172z"/></svg></svg><svg width="7" height="2" xmlns="http://www.w3.org/2000/svg" xmlns:xlink="http://www.w3.org/1999/xlink" xmlns:svgjs="http://svgjs.com/svgjs" viewBox="0 0.329 7 1.343" fill="#96a4dc" x="66" y="133"><svg xmlns="http://www.w3.org/2000/svg" xmlns:xlink="http://www.w3.org/1999/xlink" width="7" height="2" viewBox="0.179 0.206 6.111 1.172"><path paint-order="stroke fill markers" fill-rule="evenodd" d="M5.722.206H.747c-.758 0-.758 1.172 0 1.172h4.975c.757 0 .757-1.172 0-1.172z"/></svg></svg><svg width="10" height="9" xmlns="http://www.w3.org/2000/svg" xmlns:xlink="http://www.w3.org/1999/xlink" xmlns:svgjs="http://svgjs.com/svgjs" viewBox="0 0.135 10 8.731" fill="#96a4dc" x="63" y="140"><svg xmlns="http://www.w3.org/2000/svg" width="10" height="9" viewBox="0.906 0.962 8.241 7.195"><path paint-order="stroke fill markers" fill-rule="evenodd" d="M8.182 1.102L1.107 7.126c-.406.345-.154 1.031.38 1.031h7.075a.586.586 0 0 0 .585-.585V1.548c0-.445-.562-.79-.965-.446zm-.206 5.884H3.079l4.897-4.17v4.17z"/></svg></svg></svg>