<svg xmlns="http://www.w3.org/2000/svg" width="246.198" height="135.977" viewBox="0 0 246.198 135.977">
  <g id="step2_seed" transform="translate(1.5)">
    <g id="Group_51" data-name="Group 51" transform="translate(0 89.971)">
      <line id="Line_18" data-name="Line 18" x2="209.127" transform="translate(16.213 44.506)" fill="none" stroke="#fff" stroke-linecap="round" stroke-linejoin="round" stroke-width="3"/>
      <line id="Line_19" data-name="Line 19" x2="9.869" transform="translate(0 44.506)" fill="none" stroke="#fff" stroke-linecap="round" stroke-linejoin="round" stroke-width="3"/>
      <line id="Line_20" data-name="Line 20" x2="9.869" transform="translate(233.329 44.506)" fill="none" stroke="#fff" stroke-linecap="round" stroke-linejoin="round" stroke-width="3"/>
      <g id="Group_49" data-name="Group 49" transform="translate(116.902)">
        <g id="Group_47" data-name="Group 47">
          <path id="Path_79" data-name="Path 79" d="M396.114,199.448l7.824-.223c-12.751-13.071-10.488-27.494-5.588-30.845,3.6-2.461,8.436-1.908,9.64,2.518.93,3.419-1.978,5.2-1.816,8.209.256,4.756,8.063,10.209,12.517,8.047,3.484-1.692,5.273-9.222,2.012-13.635-1.85-2.5-3.572-1.78-7.377-4.916-1.328-1.1-7.622-8.5-16.539-4.248C388.563,168.283,383.9,185.094,396.114,199.448Z" transform="translate(-388.66 -163.048)" fill="#fff"/>
          <path id="Path_80" data-name="Path 80" d="M396.429,166.847a7.959,7.959,0,0,1,4.934-3.749c-12.69,1.052-18.281,20.928-5.213,36.285l3.909-.112C393.079,189.664,390.1,178.032,396.429,166.847Z" transform="translate(-388.64 -163.009)" fill="#fff"/>
          <path id="Path_81" data-name="Path 81" d="M394.476,164.6c-5.966,4.974-9.924,19.973,1.665,33.592l3.008-.085C390.379,187.794,387.349,174.123,394.476,164.6Z" transform="translate(-388.63 -161.805)" fill="#fff"/>
        </g>
        <g id="Group_48" data-name="Group 48" transform="translate(15.706 3.771)">
          <path id="Path_82" data-name="Path 82" d="M401.5,167.626c-1.488,3.147-3.459,3.983-4.093,7.173-.69,3.464,9.577,17.494,15.626,4.723a13.688,13.688,0,0,0,.811-2.214C408.73,175.2,403.964,172.216,401.5,167.626Z" transform="translate(-397.379 -163.151)" fill="#fff"/>
          <path id="Path_83" data-name="Path 83" d="M407.149,167.969a17.653,17.653,0,0,1-2.906-2.823c-.288.184,2.466,5.3,2.389,5.34,0,0-2.427-5.286-5.83-4.215-1.218.382-2.169,1.672-1.9,2.318.195.463.863.225,1.288.78.488.636.168,1.659-.234,2.872-.612,1.848-1.656,2.666-1.567,5.608.14,4.705,13.444,15.2,16.089,1.576,1.207-6.217-1.6-8.361-4.475-10.005C408.553,168.59,408.189,168.659,407.149,167.969Z" transform="translate(-396.57 -165.142)" fill="#fff"/>
          <path id="Path_84" data-name="Path 84" d="M402.137,172.089c.551-2.209-.148-5.111-2.1-6.085-.816.551-1.346,1.439-1.133,1.942.195.463.863.225,1.288.78,1.218,1.589-1.919,4.574-1.8,8.479.074,2.454,3.448,6.138,7.109,7.633C400.391,181.126,400.732,178.178,402.137,172.089Z" transform="translate(-396.569 -164.451)" fill="#fff"/>
          <path id="Path_85" data-name="Path 85" d="M406.653,168.267a13.405,13.405,0,0,1-3.392-3.122c-.288.186,2.468,5.3,2.389,5.34,0,0-2.609-5.574-6.062-4.129a6.623,6.623,0,0,1,3.8,2.414c3.162,3.614,3.8,7.856,3.889,17.368a28.524,28.524,0,0,0-.629-17.871Z" transform="translate(-395.608 -165.139)" fill="#fff"/>
        </g>
      </g>
      <g id="Group_50" data-name="Group 50" transform="translate(100.506 27.082)">
        <path id="Path_86" data-name="Path 86" d="M383.543,189.529c.877-.67.378-1.529,1.3-2.873.065-.1,1.338-1.919,2.947-1.852,1.112.047,1.477.957,2.019.724.811-.346.034-2.4,1.36-4.3a3.012,3.012,0,0,1,3.079-1.339,2.487,2.487,0,0,1,3.18-1.639c.665.342.486.917,1.151,1.56,1.1,1.07,3.246-.034,3.765,3.551a7.517,7.517,0,0,1,4-2.582c3.471-.65,4.01,1.344,7.386,4.215a4.284,4.284,0,0,1,7.3.7,4.962,4.962,0,0,1,3.967,5.033,3.417,3.417,0,0,1,3.073,5.7l-46.588.288c-2.758-1.962-2.187-5.451-.539-6.514C381.961,189.547,382.683,190.188,383.543,189.529Z" transform="translate(-379.558 -178.081)" fill="#fff"/>
        <path id="Path_87" data-name="Path 87" d="M396.191,183.6c-.007.5-.429.548-.6,1.218-.274,1.066.629,1.6.292,2.1-.436.652-2.03-.119-3.516.742-.722.42-.542.7-1.5,1.308a3.292,3.292,0,0,1-2.509.737,1.933,1.933,0,0,1-1.355-1.578c-.115-1.115,1.169-1.486,1.039-2.428-.151-1.094-1.965-1.185-2.084-2.182s1.5-2.272,2.832-2.182c1.1.074,1.241,1.029,2.441,1.126s1.558-.836,2.762-.726C395.123,181.841,396.2,182.791,396.191,183.6Z" transform="translate(-374.432 -175.476)" fill="#fff"/>
        <path id="Path_88" data-name="Path 88" d="M391.118,180.141c1.448-.052,2.664,1.214,1.511,2.787a2.142,2.142,0,0,1-1.771.859c-.677-.079-.582-.677-1.49-1.083-.839-.375-1.3-.034-1.765-.414a1.273,1.273,0,0,1-.016-1.881c.436-.245,1.03.191,1.338-.068.324-.27-.211-.841.132-1.274C389.715,178.23,391.6,178.913,391.118,180.141Z" transform="translate(-373.448 -177.587)" fill="#fff"/>
        <path id="Path_89" data-name="Path 89" d="M390.322,180.139c.964-.036,1.771.807,1,1.852a1.421,1.421,0,0,1-1.176.571c-.45-.052-.386-.45-.989-.721-.558-.249-.866-.022-1.175-.274a.847.847,0,0,1-.011-1.25c.29-.164.685.126.89-.045s-.139-.56.086-.848C389.418,178.831,390.635,179.344,390.322,180.139Z" transform="translate(-373.028 -177.212)" fill="#fff"/>
        <path id="Path_90" data-name="Path 90" d="M396.585,184.593c.249.776-.6,1.32-.249,1.812.229.317.638.164,1.057.6a1.136,1.136,0,0,1-.335,1.888c-.515.234-.807-.083-1.418.135-.519.186-.44.461-.944.634a2.319,2.319,0,0,1-1.58-.141c-.432-.2-.373-.34-.993-.73s-.742-.286-1.036-.54a1.421,1.421,0,0,1-.366-1.809c.36-.45,2.133-.7,2.493-1.066.328-.333.094-.558.384-.989a1.883,1.883,0,0,1,1.749-.766A1.569,1.569,0,0,1,396.585,184.593Z" transform="translate(-370.767 -173.659)" fill="#fff"/>
        <path id="Path_91" data-name="Path 91" d="M404.289,188.931c-.542-.177-.422-1.048-.9-1.146-.346-.07-.522.366-1.11.582a2.655,2.655,0,0,1-2.679-.654c-.537-.605-.751-1.672-.13-2.108a1.747,1.747,0,0,1,1.783.085c.631.429.458,1.131.9,1.239s.74-.618,1.443-.679c.982-.086,2.346,1.176,2.021,2A1.266,1.266,0,0,1,404.289,188.931Z" transform="translate(-363.904 -172.217)" fill="#fff"/>
        <path id="Path_92" data-name="Path 92" d="M387.286,186.407c.51.281.564,1.335.016,1.976-1.185,1.389-4.741.211-4.6-.677.056-.357.728-.362.89-.843s-.395-.749-.249-1.139c.225-.605,1.926-.87,2.293-.438.274.322-.313.892-.032,1.149C385.918,186.724,386.763,186.117,387.286,186.407Z" transform="translate(-377.043 -172.477)" fill="#fff"/>
        <path id="Path_93" data-name="Path 93" d="M386.113,182.951c.445.339.115.748.582,1.306.6.722,1.5.454,1.89,1.074a1.311,1.311,0,0,1-.566,1.778c-.413.157-.883-.045-1.54-.326-.922-.4-.926-.674-1.567-.854-.958-.268-1.474.211-1.9-.083-.591-.413-.438-1.956.647-2.69A2.4,2.4,0,0,1,386.113,182.951Z" transform="translate(-377.06 -174.381)" fill="#fff"/>
        <path id="Path_94" data-name="Path 94" d="M400.455,181.582c.416.82-.427,3.733.085,4.633.576,1.014,1.744.805,2.3,1.838,1.128,2.075-1.7,3.342-3.27,2.378-.548-.335-.378-.728-.94-1.009-1.12-.564-2.85,1.176-3.059-1.91-.05-.737.193-.805.042-1.16-.353-.838-1.751-.567-2.479-1.465a1.7,1.7,0,0,1,.1-2.311c.632-.418,1.573.207,2.047-.211s-.294-1.187.162-1.8C396.173,179.584,399.612,179.924,400.455,181.582Z" transform="translate(-368.995 -176.529)" fill="#fff"/>
        <path id="Path_95" data-name="Path 95" d="M399.348,181.907c.322.632-.348,2.848.065,3.576.445.782,1.346.621,1.78,1.418.868,1.6-1.31,2.58-2.524,1.836-.423-.259-.292-.562-.726-.78-.865-.434-2.2.91-2.362-1.472-.038-.569.15-.623.034-.9-.274-.647-1.353-.438-1.915-1.131a1.311,1.311,0,0,1,.079-1.783c.488-.322,1.214.16,1.578-.162s-.225-.917.126-1.391C396.075,180.325,398.719,180.671,399.348,181.907Z" transform="translate(-368.47 -175.988)" fill="#fff"/>
        <path id="Path_96" data-name="Path 96" d="M403.377,182.906c.7.686.522,1.351,1.2,1.591.65.229,1.038-.312,2.025-.159,3.18.5,1.236,4.192-1.144,4.655a3.175,3.175,0,0,1-2.706-.564c-.5-.53-.146-.978-.688-1.448-.515-.449-1.034-.211-2.03-.569-.277-.1-1.551-.557-1.87-1.439C397.463,183.037,400.992,180.58,403.377,182.906Z" transform="translate(-364.721 -174.973)" fill="#fff"/>
      </g>
    </g>
    <g id="Group_53" data-name="Group 53" transform="translate(134.688)">
      <g id="Group_52" data-name="Group 52">
        <path id="Path_97" data-name="Path 97" d="M404.2,149.071a3.264,3.264,0,0,0,6.529,0c0-1.8-1.461-6.478-3.264-6.478S404.2,147.271,404.2,149.071Z" transform="translate(-393.994 -89.471)" fill="#fff"/>
        <path id="Path_98" data-name="Path 98" d="M398.533,156.509a3.263,3.263,0,1,0,6.527,0c0-1.8-1.461-6.476-3.262-6.476S398.533,154.706,398.533,156.509Z" transform="translate(-398.533 -83.508)" fill="#fff"/>
        <path id="Path_99" data-name="Path 99" d="M441.77,155.513l4.417,5.6a3.956,3.956,0,0,0,5.776.474l18.17-16.568a3.928,3.928,0,0,0,.191-5.642,15.274,15.274,0,1,0-22.1-21.043l-.328-.31a3.959,3.959,0,0,0-5.394-.058l-14.932,13.61a3.963,3.963,0,0,0-.44,5.379l8.847,11.216-17.943-2.627a10.076,10.076,0,0,0-6.159-7.555,1.882,1.882,0,0,0-2.556,1.475l-2.308,15.77a1.876,1.876,0,0,0,2.027,2.144,10.077,10.077,0,0,0,8.067-5.475Zm25.075-19.472-15.12-14.378a10.452,10.452,0,1,1,15.12,14.378Z" transform="translate(-391.752 -113.105)" fill="#fff"/>
      </g>
    </g>
  </g>
</svg>
