<svg width="24" height="21" xmlns="http://www.w3.org/2000/svg" xmlns:xlink="http://www.w3.org/1999/xlink" xmlns:svgjs="http://svgjs.com/svgjs" viewBox="0 1 24 19" fill="#fff"><svg xmlns="http://www.w3.org/2000/svg" width="24" height="21" viewBox="0 1 24 19"><path paint-order="stroke fill markers" fill-rule="evenodd" d="M22.085 3.233L24 1.4V1h-6.634l-4.728 11.768L7.258 1H.304v.4L2.54 4.095c.218.199.332.49.303.783V15.46c.069.381-.055.773-.323 1.05L0 19.564v.396h7.145v-.401l-2.52-3.05a1.244 1.244 0 0 1-.347-1.05V6.307l6.272 13.659h.729l5.393-13.66v10.882c0 .287 0 .346-.188.534l-1.94 1.877V20h9.412v-.401l-1.87-1.831a.556.556 0 0 1-.214-.534V3.767a.554.554 0 0 1 .213-.534z"/></svg></svg>