<svg width="22" height="22" xmlns="http://www.w3.org/2000/svg" xmlns:xlink="http://www.w3.org/1999/xlink" xmlns:svgjs="http://svgjs.com/svgjs" viewBox="0 0.688 22 20.625" fill="#fff"><svg xmlns="http://www.w3.org/2000/svg" width="22" height="22" viewBox="0.184 1 21.775 20.414"><path paint-order="stroke fill markers" fill-rule="evenodd" d="M1.555 13.46a5.18 5.18 0 0 0-.095.936c0 3.87 4.378 7.018 9.654 7.018 5.277 0 9.57-3.148 9.57-7.018 0-.318-.04-.628-.096-.935a2.535 2.535 0 0 0 1.371-2.254 2.554 2.554 0 0 0-2.551-2.552c-.644 0-1.248.24-1.711.661-1.604-1.118-3.731-1.829-6.083-1.918l1.22-4.736 2.753.964a2.55 2.55 0 0 0 2.545 2.477 2.554 2.554 0 0 0 2.551-2.552A2.554 2.554 0 0 0 18.132 1c-.982 0-1.825.562-2.252 1.376L11.946 1l-1.653 6.41c-2.225.14-4.316.84-5.847 1.906a2.539 2.539 0 0 0-1.71-.661 2.554 2.554 0 0 0-2.552 2.552c0 .97.544 1.822 1.371 2.254zm13.387-2.253c1.055 0 1.914.858 1.914 1.913a1.916 1.916 0 0 1-1.914 1.914 1.916 1.916 0 0 1-1.914-1.914c0-1.055.859-1.913 1.914-1.913zm-.273 5.635l.546 1.153c-1.198.567-2.615.867-4.1.867-1.486 0-2.989-.3-4.186-.867l.545-1.153c2.056.974 5.14.974 7.195 0zm-7.468-5.635c1.056 0 1.914.858 1.914 1.913a1.916 1.916 0 0 1-1.914 1.914 1.916 1.916 0 0 1-1.913-1.914c0-1.055.858-1.913 1.913-1.913z"/></svg></svg>