<svg width="25" height="19" xmlns="http://www.w3.org/2000/svg" xmlns:xlink="http://www.w3.org/1999/xlink" xmlns:svgjs="http://svgjs.com/svgjs" viewBox="0.807 0 23.385 19" fill="#fff"><svg xmlns="http://www.w3.org/2000/svg" width="25" height="19" viewBox="0.799 0 23.385 19"><path paint-order="stroke fill markers" fill-rule="evenodd" d="M24.184 2.25c-.87.38-1.796.633-2.763.756a4.768 4.768 0 0 0 2.11-2.65 9.584 9.584 0 0 1-3.04 1.16 4.793 4.793 0 0 0-8.293 3.278c0 .381.032.747.11 1.094-3.985-.194-7.511-2.104-9.88-5.014a4.827 4.827 0 0 0-.657 2.423c0 1.66.855 3.132 2.13 3.984a4.74 4.74 0 0 1-2.166-.59v.052a4.816 4.816 0 0 0 3.84 4.71c-.39.108-.815.159-1.256.159-.307 0-.617-.018-.908-.082.621 1.899 2.384 3.294 4.48 3.34a9.634 9.634 0 0 1-5.945 2.044A8.98 8.98 0 0 1 .8 16.848 13.496 13.496 0 0 0 8.154 19c8.822 0 13.645-7.308 13.645-13.642 0-.212-.008-.417-.018-.62a9.569 9.569 0 0 0 2.403-2.489z"/></svg></svg>