<svg width="34" height="22" xmlns="http://www.w3.org/2000/svg" xmlns:xlink="http://www.w3.org/1999/xlink" xmlns:svgjs="http://svgjs.com/svgjs" viewBox="44 345 34 22"><svg width="5" height="9" xmlns="http://www.w3.org/2000/svg" xmlns:xlink="http://www.w3.org/1999/xlink" xmlns:svgjs="http://svgjs.com/svgjs" viewBox="0.292 0 4.416 9" fill="#96a4dc" stroke-miterlimit="100" stroke="#96a4dc" stroke-width=".3" x="56" y="350"><svg xmlns="http://www.w3.org/2000/svg" xmlns:xlink="http://www.w3.org/1999/xlink" width="5" height="9" viewBox="0.848 0.231 3.936 8.022"><path paint-order="stroke fill markers" fill-rule="evenodd" d="M2.78 8.253a.481.481 0 0 0 .482-.482v-.379c.838-.205 1.376-.917 1.494-1.62.153-.91-.323-1.701-1.212-2.016a16.542 16.542 0 0 1-.282-.102v-1.71c.437.056.771.217.78.22a.481.481 0 0 0 .43-.861 3.697 3.697 0 0 0-1.21-.326V.713a.481.481 0 1 0-.963 0v.331l-.11.03c-.59.178-1.03.682-1.149 1.314-.11.58.079 1.141.49 1.464.2.156.442.299.77.448v2.17c-.244-.031-.424-.109-.707-.294a.481.481 0 1 0-.527.806c.482.315.82.422 1.233.455v.335c0 .265.216.48.482.48zm1.026-2.64c-.048.29-.233.597-.544.759V4.679c.61.238.571.773.544.934zM2.124 3.095c-.125-.099-.18-.306-.138-.528a.764.764 0 0 1 .313-.492v1.14a1.88 1.88 0 0 1-.175-.12z"/></svg></svg><svg width="4" height="2" xmlns="http://www.w3.org/2000/svg" xmlns:xlink="http://www.w3.org/1999/xlink" xmlns:svgjs="http://svgjs.com/svgjs" viewBox="0 0.161 4 1.677" fill="#96a4dc" stroke-miterlimit="100" stroke="#96a4dc" stroke-width=".3" x="63" y="353"><svg xmlns="http://www.w3.org/2000/svg" xmlns:xlink="http://www.w3.org/1999/xlink" width="4" height="2" viewBox="0.723 0.761 2.296 0.963"><path paint-order="stroke fill markers" fill-rule="evenodd" d="M2.538 1.723a.481.481 0 0 0 0-.962H1.204a.481.481 0 1 0 0 .962h1.334z"/></svg></svg><svg width="3" height="2" xmlns="http://www.w3.org/2000/svg" xmlns:xlink="http://www.w3.org/1999/xlink" xmlns:svgjs="http://svgjs.com/svgjs" viewBox="0 0.371 3 1.258" fill="#96a4dc" stroke-miterlimit="100" stroke="#96a4dc" stroke-width=".3" x="51" y="353"><svg xmlns="http://www.w3.org/2000/svg" xmlns:xlink="http://www.w3.org/1999/xlink" width="3" height="2" viewBox="0.612 0.761 2.296 0.963"><path paint-order="stroke fill markers" fill-rule="evenodd" d="M1.093.76a.481.481 0 1 0 0 .963h1.334a.481.481 0 0 0 0-.962H1.093z"/></svg></svg><svg width="2" height="2" xmlns="http://www.w3.org/2000/svg" xmlns:xlink="http://www.w3.org/1999/xlink" xmlns:svgjs="http://svgjs.com/svgjs" viewBox="0.118 0 1.764 2" fill="#96a4dc" stroke-miterlimit="100" stroke="#96a4dc" stroke-width=".3" x="70" y="348"><svg xmlns="http://www.w3.org/2000/svg" xmlns:xlink="http://www.w3.org/1999/xlink" width="2" height="2" viewBox="0.291 0.353 0.963 1.091"><path paint-order="stroke fill markers" fill-rule="evenodd" d="M1.254.963V.835a.481.481 0 1 0-.963 0v.128a.481.481 0 1 0 .963 0z"/></svg></svg><svg width="2" height="2" xmlns="http://www.w3.org/2000/svg" xmlns:xlink="http://www.w3.org/1999/xlink" xmlns:svgjs="http://svgjs.com/svgjs" viewBox="0.118 0 1.765 2" fill="#96a4dc" stroke-miterlimit="100" stroke="#96a4dc" stroke-width=".3" x="46" y="348"><svg xmlns="http://www.w3.org/2000/svg" xmlns:xlink="http://www.w3.org/1999/xlink" width="2" height="2" viewBox="0.377 0.353 0.963 1.091"><path paint-order="stroke fill markers" fill-rule="evenodd" d="M.377.835v.128a.481.481 0 1 0 .963 0V.835a.481.481 0 1 0-.963 0z"/></svg></svg><svg width="2" height="2" xmlns="http://www.w3.org/2000/svg" xmlns:xlink="http://www.w3.org/1999/xlink" xmlns:svgjs="http://svgjs.com/svgjs" viewBox="0.118 0 1.765 2" fill="#96a4dc" stroke-miterlimit="100" stroke="#96a4dc" stroke-width=".3" x="46" y="359"><svg xmlns="http://www.w3.org/2000/svg" xmlns:xlink="http://www.w3.org/1999/xlink" width="2" height="2" viewBox="0.377 0.039 0.963 1.091"><path paint-order="stroke fill markers" fill-rule="evenodd" d="M1.34.65V.52a.481.481 0 1 0-.963 0v.13a.481.481 0 0 0 .963 0z"/></svg></svg><svg width="2" height="2" xmlns="http://www.w3.org/2000/svg" xmlns:xlink="http://www.w3.org/1999/xlink" xmlns:svgjs="http://svgjs.com/svgjs" viewBox="0.42 0 1.161 2" fill="#96a4dc" stroke-miterlimit="100" stroke="#96a4dc" stroke-width=".3" x="68" y="357"><svg xmlns="http://www.w3.org/2000/svg" xmlns:xlink="http://www.w3.org/1999/xlink" width="2" height="2" viewBox="0.57 0.312 0.963 1.659"><path paint-order="stroke fill markers" fill-rule="evenodd" d="M1.533.793a.48.48 0 1 0-.963 0v.696a.481.481 0 1 0 .963 0V.793z"/></svg></svg><svg width="2" height="2" xmlns="http://www.w3.org/2000/svg" xmlns:xlink="http://www.w3.org/1999/xlink" xmlns:svgjs="http://svgjs.com/svgjs" viewBox="0.42 0 1.161 2" fill="#96a4dc" stroke-miterlimit="100" stroke="#96a4dc" stroke-width=".3" x="68" y="360"><svg xmlns="http://www.w3.org/2000/svg" xmlns:xlink="http://www.w3.org/1999/xlink" width="2" height="2" viewBox="0.57 0.109 0.963 1.659"><path paint-order="stroke fill markers" fill-rule="evenodd" d="M1.533.59a.481.481 0 0 0-.963 0v.697a.481.481 0 0 0 .963 0V.59z"/></svg></svg><svg width="2" height="3" xmlns="http://www.w3.org/2000/svg" xmlns:xlink="http://www.w3.org/1999/xlink" xmlns:svgjs="http://svgjs.com/svgjs" viewBox="0.129 0 1.741 3" fill="#96a4dc" stroke-miterlimit="100" stroke="#96a4dc" stroke-width=".3" x="68" y="362"><svg xmlns="http://www.w3.org/2000/svg" xmlns:xlink="http://www.w3.org/1999/xlink" width="2" height="3" viewBox="0.57 0.907 0.963 1.659"><path paint-order="stroke fill markers" fill-rule="evenodd" d="M1.052.907a.481.481 0 0 0-.482.481v.696a.481.481 0 1 0 .963 0v-.696a.481.481 0 0 0-.481-.481z"/></svg></svg><svg width="2" height="2" xmlns="http://www.w3.org/2000/svg" xmlns:xlink="http://www.w3.org/1999/xlink" xmlns:svgjs="http://svgjs.com/svgjs" viewBox="0.42 0 1.161 2" fill="#96a4dc" stroke-miterlimit="100" stroke="#96a4dc" stroke-width=".3" x="72" y="357"><svg xmlns="http://www.w3.org/2000/svg" xmlns:xlink="http://www.w3.org/1999/xlink" width="2" height="2" viewBox="0.524 0.312 0.963 1.659"><path paint-order="stroke fill markers" fill-rule="evenodd" d="M1.486.793a.48.48 0 1 0-.962 0v.696a.481.481 0 1 0 .962 0V.793z"/></svg></svg><svg width="2" height="2" xmlns="http://www.w3.org/2000/svg" xmlns:xlink="http://www.w3.org/1999/xlink" xmlns:svgjs="http://svgjs.com/svgjs" viewBox="0.42 0 1.161 2" fill="#96a4dc" stroke-miterlimit="100" stroke="#96a4dc" stroke-width=".3" x="72" y="360"><svg xmlns="http://www.w3.org/2000/svg" xmlns:xlink="http://www.w3.org/1999/xlink" width="2" height="2" viewBox="0.524 0.109 0.963 1.659"><path paint-order="stroke fill markers" fill-rule="evenodd" d="M1.486.59a.481.481 0 0 0-.962 0v.697a.481.481 0 0 0 .962 0V.59z"/></svg></svg><svg width="2" height="3" xmlns="http://www.w3.org/2000/svg" xmlns:xlink="http://www.w3.org/1999/xlink" xmlns:svgjs="http://svgjs.com/svgjs" viewBox="0.129 0 1.741 3" fill="#96a4dc" stroke-miterlimit="100" stroke="#96a4dc" stroke-width=".3" x="72" y="362"><svg xmlns="http://www.w3.org/2000/svg" xmlns:xlink="http://www.w3.org/1999/xlink" width="2" height="3" viewBox="0.524 0.907 0.963 1.659"><path paint-order="stroke fill markers" fill-rule="evenodd" d="M1.005.907a.481.481 0 0 0-.481.481v.696a.48.48 0 1 0 .962 0v-.696a.481.481 0 0 0-.481-.481z"/></svg></svg><svg width="34" height="22" xmlns="http://www.w3.org/2000/svg" xmlns:xlink="http://www.w3.org/1999/xlink" xmlns:svgjs="http://svgjs.com/svgjs" viewBox="0 0.18 34 21.639" fill="#96a4dc" stroke-miterlimit="100" stroke="#96a4dc" stroke-width=".3" x="44" y="345"><svg xmlns="http://www.w3.org/2000/svg" width="34" height="22" viewBox="0.145 1 32.855 20.911"><path paint-order="stroke fill markers" fill-rule="evenodd" d="M32.519 16.522A.481.481 0 0 0 33 16.04v-4.924c0-.634-.516-1.15-1.15-1.15h-2.364v-7.83c0-.627-.51-1.137-1.136-1.137H6.01a.481.481 0 0 0 0 .962h22.34c.096 0 .174.078.174.174v7.83h-.963V6.255a.481.481 0 0 0-.481-.481 2.37 2.37 0 0 1-2.367-2.367.481.481 0 0 0-.481-.481H5.399a.481.481 0 0 0-.481.481A2.37 2.37 0 0 1 2.55 5.773a.481.481 0 0 0-.481.481v5.976c0 .266.215.481.481.481a2.37 2.37 0 0 1 2.367 2.367.48.48 0 0 0 .481.48h9.83a.481.481 0 1 0 0-.961H5.845a3.336 3.336 0 0 0-2.814-2.814V6.701a3.337 3.337 0 0 0 2.814-2.813h17.94A3.337 3.337 0 0 0 26.598 6.7v3.266h-4.392c-.635 0-1.15.516-1.15 1.15v3.48h-3.905a.481.481 0 1 0 0 .962h3.904v.963H1.282a.174.174 0 0 1-.175-.175V2.137c0-.097.078-.175.175-.175h2.803a.481.481 0 1 0 0-.962H1.282C.655 1 .145 1.51.145 2.136v14.211c0 .627.51 1.137 1.137 1.137h19.774v3.276c0 .635.516 1.15 1.15 1.15h9.644c.634 0 1.15-.515 1.15-1.15v-2.795a.481.481 0 0 0-.962 0v2.795a.188.188 0 0 1-.188.188h-9.643a.188.188 0 0 1-.188-.188v-9.643c0-.103.084-.188.188-.188h9.643c.103 0 .188.085.188.188v4.924c0 .265.215.48.48.48 0 0 0 0 0 0z"/></svg></svg></svg>